<svg xmlns="http://www.w3.org/2000/svg" xmlns:xlink="http://www.w3.org/1999/xlink" width="747" height="30" viewBox="0 0 747 30">
  <defs>
    <path id="a" d="M57,8.36738561 C56.1168053,8.76901212 55.1679037,9.04062323 54.1720317,9.16247977 C55.1884371,8.53793212 55.9692212,7.54834125 56.3370265,6.36899106 C55.3858148,6.94774381 54.3319359,7.36805674 53.2102967,7.59439934 C52.3119586,6.61323051 51.0324685,6 49.6161744,6 C46.8970333,6 44.6925117,8.26053085 44.6925117,11.049019 C44.6925117,11.4443289 44.7358886,11.8299009 44.819819,12.1994184 C40.7277608,11.9891303 37.099245,9.97889224 34.6709088,6.92431999 C34.2468932,7.6699346 34.0040853,8.53714256 34.0040853,9.46225211 C34.0040853,11.2140385 34.8734199,12.7592215 36.1944902,13.6651182 C35.3872693,13.6387993 34.6280453,13.4116672 33.9645584,13.0334645 C33.9640451,13.0545196 33.9640451,13.0758379 33.9640451,13.0968931 C33.9640451,15.5432354 35.661134,17.5840034 37.9139093,18.0477425 C37.5004171,18.1632825 37.0653648,18.2248687 36.6164524,18.2248687 C36.2994674,18.2248687 35.9904391,18.193286 35.6901375,18.1343317 C36.3164075,20.1403587 38.1351571,21.6000053 40.2896285,21.6405364 C38.6046029,22.9949073 36.481445,23.8021081 34.1742562,23.8021081 C33.7769341,23.8021081 33.3852587,23.7781579 33,23.7315735 C35.1788548,25.1638484 37.7670952,26 40.5478365,26 C49.6043676,26 54.5572904,18.3064573 54.5572904,11.6343514 C54.5572904,11.4153781 54.5526704,11.1977208 54.5431737,10.9811162 C55.5054221,10.269453 56.3401065,9.38013712 57,8.36738561"/>
  </defs>
  <g fill="none" fill-rule="evenodd">
    <path fill="#FFFFFF" d="M173.05088 7.30137122C167.080856 6.89954293 161.713657 6.89954293 156.94912 7.30137122 156.202867 7.38747689 155.571432 7.8036497 155.054795 8.54990343 154.538159 9.29615716 154.236792 10.0710999 154.150686 10.8747565 153.949771 13.5153432 153.949771 16.1558914 154.150686 18.7964781 154.236792 19.6001347 154.538159 20.3750783 155.054795 21.1213312 155.571432 21.8675841 156.202867 22.2981081 156.94912 22.4129162 162.74693 22.7860425 168.114129 22.7860425 173.05088 22.4129162 173.797134 22.2694061 174.428568 21.8245312 174.945205 21.0782783 175.461842 20.3320254 175.763209 19.5714319 175.849314 18.7964781 176.050229 16.0984858 176.050229 13.3861847 175.849314 10.6594923 175.763209 9.82713293 175.483367 9.0665402 175.009783 8.37769209 174.536202 7.68884398 173.88324 7.33007403 173.05088 7.30137122zM162.244619 18.7534253L162.244619 10.8317037 169.133072 14.7925645 162.244619 18.7534253zM235.741817 11.3549914C235.645594 13.4725396 234.165134 16.3733982 231.305155 20.0547371 228.348637 23.9005367 225.846195 25.823122 223.798141 25.823122 222.531197 25.823122 221.458587 24.6524015 220.581569 22.3097027 219.996366 20.1629101 219.410534 18.0173753 218.825645 15.8699538 218.175664 13.5285128 217.477571 12.35622 216.730423 12.35622 216.568164 12.35622 215.99774 12.6992917 215.022612 13.3816617L214 12.0625179C215.07261 11.1200926 216.132013 10.1757806 217.173807 9.23052518 218.606155 7.99408333 219.680337 7.34253005 220.397612 7.27649424 222.09033 7.11392038 223.132437 8.27237709 223.523621 10.7493487 223.94625 13.4234844 224.23838 15.0866433 224.402526 15.7372533 224.890248 17.9554274 225.427653 19.0635711 226.013171 19.0635711 226.468818 19.0635711 227.153704 18.3431519 228.064998 16.9054581 228.975663 15.466192 229.463699 14.3706265 229.52942 13.6200195 229.659291 12.377603 229.17094 11.7552942 228.064998 11.7552942 227.543629 11.7552942 227.006224 11.8741586 226.454667 12.112202 227.523504 8.61010306 229.566212 6.9076371 232.581532 7.0038607 234.817316 7.06958205 235.87043 8.51985413 235.741817 11.3549914"/>
    <use fill="#FFFFFF" xlink:href="#a"/>
    <path fill="#FFFFFF" d="M263.288848 20.8654476C261.987001 21.3140994 260.57494 21.2616075 259.313262 20.7182567 258.052442 20.1754401 257.09439 19.2074795 256.615364 17.9922863L256.614792 17.9916184C256.133479 16.7746888 256.1878 15.4558476 256.76875 14.2780531 257.349556 13.1003922 258.385944 12.2041572 259.688506 11.7551047 262.376683 10.8284163 265.370773 12.1170715 266.363133 14.6281324 267.356208 17.1378577 265.976739 19.9362215 263.288848 20.8654476M248.514809 21.1409965C245.649517 21.1409965 243.318429 18.9641203 243.318429 16.2877033 243.318429 13.6106185 245.649517 11.4325402 248.514809 11.4325402 251.379673 11.4325402 253.710617 13.6106185 253.710617 16.2877033 253.710617 18.9641203 251.379673 21.1409965 248.514809 21.1409965M261.277254 10.2309708C260.595953 10.2510059 259.907077 10.3702813 259.23321 10.6025544 257.601434 11.1658068 256.301874 12.288438 255.574973 13.7644877 255.255765 14.412288 255.065499 15.0936137 255.000885 15.7832205 254.728136 12.694749 251.977061 10.2544786 248.614445 10.2069287 250.483089 9.4570832 252.642208 9.06038899 254.972724 9.06038899 257.3071 9.06038899 259.415614 9.45320975 261.277254 10.2309708M267.596078 14.2027213C267.375792 13.6448116 267.075168 13.1361882 266.713218 12.6815259 267.021419 11.4663327 267.993765 10.2535437 267.993765 10.2535437L263.667237 10.2508723C261.228508 8.77535686 258.258576 8 254.972724 8 251.569939 8 248.493938 8.79792969 246.070648 10.2791885L242 10.2817263C242 10.2817263 242.958481 11.477018 243.274114 12.6833958 242.476739 13.6928958 242.004146 14.9394773 242.004146 16.2877033 242.004146 19.6414389 244.924617 22.3694128 248.514809 22.3694128 250.565858 22.3694128 252.397192 21.4779862 253.591397 20.0891558L254.975011 22.0257447 256.372063 20.0732613C257.000043 20.8201683 257.812 21.4237579 258.762761 21.8332746 260.342789 22.5144667 262.112082 22.5800481 263.744287 22.0174636 267.112764 20.853293 268.840459 17.3474245 267.596078 14.2027213M248.430754 15.2232806C247.832079 15.2232806 247.348336 15.6747373 247.348336 16.2334484 247.348336 16.7908237 247.832079 17.2449518 248.430754 17.2449518 249.027428 17.2449518 249.512029 16.7908237 249.512029 16.2334484 249.512029 15.6747373 249.027428 15.2232806 248.430754 15.2232806M261.475297 15.2232806C260.876336 15.2232806 260.394165 15.6747373 260.394165 16.2334484 260.394165 16.7908237 260.876336 17.2449518 261.475297 17.2449518 262.072256 17.2449518 262.555428 16.7908237 262.555428 16.2334484 262.555428 15.6747373 262.072256 15.2232806 261.475297 15.2232806M248.434028 18.2033623C247.270271 18.2033623 246.323083 17.3199497 246.323083 16.2335151 246.323083 15.147882 247.270271 14.2648701 248.434028 14.2648701 249.593639 14.2648701 250.537682 15.147882 250.537682 16.2335151 250.537682 17.3199497 249.593639 18.2033623 248.434028 18.2033623M248.434028 13.2303931C246.659445 13.2303931 245.215935 14.5772834 245.215935 16.2335151 245.215935 17.8896133 246.659445 19.237305 248.434028 19.237305 250.204465 19.237305 251.644974 17.8896133 251.644974 16.2335151 251.644974 14.5772834 250.204465 13.2303931 248.434028 13.2303931M261.475297 18.2033623C260.312397 18.2033623 259.366639 17.3199497 259.366639 16.2335151 259.366639 15.147882 260.312397 14.2648701 261.475297 14.2648701 262.636767 14.2648701 263.581381 15.147882 263.581381 16.2335151 263.581381 17.3199497 262.636767 18.2033623 261.475297 18.2033623M261.475297 13.2303931C259.702572 13.2303931 258.259348 14.5772834 258.259348 16.2335151 258.259348 17.8896133 259.702572 19.237305 261.475297 19.237305 263.246735 19.237305 264.688673 17.8896133 264.688673 16.2335151 264.688673 14.5772834 263.246735 13.2303931 261.475297 13.2303931M291.530343 13.6103809C291.569043 13.6103809 291.67546 13.5716814 291.849606 13.494286 292.023749 13.4168905 292.149518 13.378191 292.226913 13.378191 292.768692 13.378191 293.155673 13.4362385 293.387863 13.5523334 293.697452 13.707128 293.861917 13.9102924 293.881265 14.161834 293.900616 14.4133719 293.774847 14.6358842 293.503958 14.8293783 293.271768 14.9841729 292.807392 15.1970112 292.110818 15.4679007 291.569039 15.6613949 291.24978 15.8742332 291.153036 16.1064232 291.056289 16.3386131 291.143358 16.706246 291.414248 17.2093255 292.381711 19.0668565 293.73614 20.2084435 295.477573 20.6341276 295.825858 20.7502226 296 20.8663176 296 20.9824126 296 21.3306976 295.883905 21.5822355 295.651715 21.73703 295.032541 22.0079196 294.355326 22.2401073 293.620053 22.4335999 293.233068 22.5496957 293.000878 22.7625344 292.923483 23.0721224 292.846087 23.4978061 292.739666 23.7590172 292.60422 23.8557635 292.468777 23.9525098 292.188217 23.9621842 291.762533 23.8847873 290.446785 23.6138977 289.227799 23.8847832 288.105541 24.6974522 286.983283 25.5101212 285.938439 25.9067751 284.970976 25.8874258 284.003513 25.8680765 282.958669 25.4520737 281.836412 24.6394047 280.752853 23.8654341 279.572567 23.6138977 278.295515 23.8847873 277.86983 23.9621842 277.589271 23.9525098 277.453826 23.8557635 277.318381 23.7590172 277.192613 23.4978061 277.076517 23.0721224 276.99912 22.6851371 276.786282 22.4722984 276.437995 22.4335999 275.702723 22.3175042 275.044858 22.1046666 274.46438 21.7950775 274.232189 21.6789825 274.077397 21.4274446 274 21.0404601 274 20.846966 274.212839 20.6921751 274.638522 20.5760801 276.457353 20.0730006 277.850479 18.7959669 278.817942 16.7449456 278.972737 16.3579611 278.856642 16.0290277 278.469657 15.7581382 278.353562 15.7194386 278.17942 15.6613911 277.94723 15.5839957 277.715038 15.5066003 277.540898 15.4292012 277.424802 15.3518057 277.115214 15.1970112 276.902375 15.0809162 276.78628 15.0035208 276.2445 14.6939317 276.07036 14.3263025 276.263852 13.9006184 276.496043 13.3201398 276.94107 13.146001 277.598945 13.378191 277.985929 13.5329855 278.276163 13.6297289 278.469657 13.6684284 278.856642 13.707128 279.050132 13.5329855 279.050132 13.146001 279.011432 12.1011424 279.011432 11.0562949 279.050132 10.0114363 279.204926 7.80562045 280.365865 6.29640049 282.532982 5.48373186 283.964828 4.90325321 285.445023 4.84520572 286.973617 5.30958938 288.502207 5.77397305 289.653472 6.68337387 290.427441 8.03782157 290.775726 8.69569564 290.988568 9.74053938 291.065963 11.1723862 291.065963 11.4045762 291.046615 11.7431835 291.007916 12.1882192 290.969216 12.6332512 290.949868 12.9718585 290.949868 13.2040485 290.911169 13.4362385 290.949868 13.5813553 291.065963 13.6394028 291.182058 13.697454 291.336849 13.6877764 291.530343 13.6103809zM134.9978 4C128.351363 4 125 8.48031068 125 12.2165825 125 14.4788447 125.91105 16.491233 127.864725 17.2415243 128.185113 17.3645631 128.47225 17.245767 128.565113 16.9121553 128.629713 16.6812621 128.782663 16.0988932 128.850825 15.8566117 128.944638 15.5267961 128.9083 15.4111262 128.649663 15.1235146 128.086313 14.4987184 127.726263 13.6899223 127.726263 12.544165 127.726263 9.2203301 130.3713 6.24462136 134.613763 6.24462136 138.370538 6.24462136 140.43465 8.40282524 140.43465 11.2851942 140.43465 15.0777379 138.6496 18.2783107 135.999338 18.2783107 134.535863 18.2783107 133.440513 17.1403689 133.791538 15.7449612 134.21215 14.078466 135.026538 12.2802233 135.026538 11.0775243 135.026538 10.0009903 134.411888 9.10287379 133.139838 9.10287379 131.643825 9.10287379 130.442075 10.5581262 130.442075 12.5075437 130.442075 13.7488738 130.8881 14.5887087 130.8881 14.5887087 130.8881 14.5887087 129.357175 20.6877282 129.0888 21.7557767 128.554188 23.8829417 129.008525 26.4906505 129.047 26.7541456 129.069325 26.910233 129.282838 26.947301 129.379263 26.8293981 129.51725 26.6599126 131.299213 24.591699 131.904838 22.5252718 132.076313 21.94 132.889038 18.9098058 132.889038 18.9098058 133.374963 19.7815728 134.79545 20.5492816 136.306188 20.5492816 140.80325 20.5492816 143.854175 16.6946602 143.854175 11.535068 143.854175 7.6333301 140.33965 4 134.9978 4M99.6442224 11.8184596L99.6442224 24.7135264 95.0252903 24.7135264 95.0252903 11.8184596 99.6442224 11.8184596zM110.413416 11.5301578C113.348012 11.5301578 114.955557 13.5744113 114.955557 17.1127148L114.955557 24.71355 110.336855 24.71355 110.336855 17.6893657C110.336855 16.1955518 109.85197 15.3305754 108.72908 15.3305754 107.836102 15.3305754 107.427778 15.9596491 107.223616 16.4574297 107.121535 16.6933323 107.096015 17.060292 107.096015 17.4010403L107.096015 24.71355 102.477083 24.71355 102.477083 16.2217632C102.477083 14.4918104 102.426043 13.0242079 102.375232 11.8184833L106.355929 11.8184833 106.56009 13.4698018 106.636651 13.4698018C107.096015 12.7880691 108.320986 11.5301578 110.413416 11.5301578zM97.3476314 6C98.7765345 6 99.6697427 6.94337444 99.6952629 8.2539447 99.6952629 9.48588074 98.7765345 10.4814419 97.3476314 10.4814419L97.3221112 10.4814419C95.8932081 10.4814419 95 9.48588074 95 8.2539447 95 6.94337444 95.9184984 6 97.3476314 6zM84.7679712 19.6182793C84.7146741 20.7723213 84.519125 21.3991968 84.3546817 21.8161784 84.1371309 22.3684124 83.8770943 22.7629455 83.4571663 23.176934 83.0372384 23.5911095 82.6374154 23.8475841 82.0773219 24.0623418 81.6543592 24.2243454 81.0189669 24.4172158 79.8490864 24.4699698 78.5838022 24.5268395 78.2044636 24.538812 75 24.538812 71.7955364 24.538812 71.4161978 24.5268395 70.1511032 24.4699698 68.9810331 24.4172158 68.3456408 24.2243454 67.9228678 24.0623418 67.3625846 23.8475841 66.9627616 23.5911095 66.5430233 23.176934 66.1230954 22.7629455 65.8630587 22.3684124 65.6453183 21.8161784 65.480875 21.3991968 65.2855156 20.7723213 65.2320288 19.6182793 65.1743693 18.3703276 65.1620408 17.9959982 65.1620408 14.8358052 65.1620408 11.675425 65.1743693 11.3010956 65.2320288 10.0531439 65.2855156 8.89910193 65.480875 8.27260062 65.6453183 7.85543193 65.8630587 7.30282373 66.1230954 6.90885187 66.5430233 6.49448925 66.9627616 6.0803137 67.3625846 5.82383914 67.9228678 5.60908145 68.3456408 5.44707783 68.9810331 5.25420747 70.1511032 5.20164047 71.4163874 5.14477084 71.7959158 5.13242414 75 5.13242414 78.2042739 5.13242414 78.5836126 5.14477084 79.8490864 5.20164047 81.0189669 5.25420747 81.6543592 5.44707783 82.0773219 5.60908145 82.6374154 5.82383914 83.0372384 6.0803137 83.4571663 6.49448925 83.8770943 6.90885187 84.1371309 7.30282373 84.3546817 7.85543193 84.519125 8.27260062 84.7146741 8.89910193 84.7679712 10.0531439 84.8256307 11.3010956 84.8379592 11.675425 84.8379592 14.8358052 84.8379592 17.9959982 84.8256307 18.3703276 84.7679712 19.6182793M86.9279256 9.95605398C86.8696972 8.69612972 86.666751 7.83597653 86.3701081 7.08282804 86.0634128 6.30461202 85.653158 5.64462497 84.9859012 4.98650864 84.3188342 4.32876644 83.6496807 3.92375738 82.8604666 3.62145039 82.0972371 3.3288711 81.2249478 3.12870496 79.9475248 3.07127411 78.6676361 3.01365619 78.2590883 3 75 3 71.7409117 3 71.3323639 3.01365619 70.0524752 3.07127411 68.7750522 3.12870496 67.9029525 3.3288711 67.1395334 3.62145039 66.3503193 3.92375738 65.6811658 4.32876644 65.0140988 4.98650864 64.346842 5.64462497 63.9365872 6.30461202 63.6300816 7.08282804 63.333249 7.83597653 63.1304925 8.69612972 63.072264 9.95605398 63.0138459 11.2184102 63 11.6213614 63 14.8358052 63 18.0502489 63.0138459 18.4530131 63.072264 19.7155563 63.1304925 20.9752935 63.333249 21.8358209 63.6300816 22.5885952 63.9365872 23.3668112 64.346842 24.0269853 65.0140988 24.6849146 65.6811658 25.3430309 66.3503193 25.7476659 67.1395334 26.0501599 67.9029525 26.3425521 68.7750522 26.5427183 70.0524752 26.6001491 71.3323639 26.657767 71.7409117 26.6714232 75 26.6714232 78.2590883 26.6714232 78.6676361 26.657767 79.9475248 26.6001491 81.2249478 26.5427183 82.0972371 26.3425521 82.8604666 26.0501599 83.6496807 25.7476659 84.3188342 25.3430309 84.9859012 24.6849146 85.653158 24.0269853 86.0634128 23.3668112 86.3701081 22.5885952 86.666751 21.8358209 86.8696972 20.9752935 86.9279256 19.7155563 86.9863438 18.4530131 87 18.0502489 87 14.8358052 87 11.6213614 86.9863438 11.2184102 86.9279256 9.95605398M75 18.7810237C72.7909212 18.7810237 71.0000632 17.0146978 71.0000632 14.8356929 71.0000632 12.6568751 72.7909212 10.8903622 75 10.8903622 77.2090788 10.8903622 79.0001264 12.6568751 79.0001264 14.8356929 79.0001264 17.0146978 77.2090788 18.7810237 75 18.7810237M75 8.75793803C71.596763 8.75793803 68.8378327 11.4790751 68.8378327 14.8356929 68.8378327 18.1924978 71.596763 20.9134478 75 20.9134478 78.403237 20.9134478 81.1621673 18.1924978 81.1621673 14.8356929 81.1621673 11.4790751 78.403237 8.75793803 75 8.75793803M81.4056838 9.93807644C80.6104002 9.93807644 79.9657141 9.30222157 79.9657141 8.5178322 79.9657141 7.73344283 80.6104002 7.09740089 81.4056838 7.09740089 82.2009673 7.09740089 82.8456534 7.73344283 82.8456534 8.5178322 82.8456534 9.30222157 82.2009673 9.93807644 81.4056838 9.93807644M190.589674 8C186.394014 8 183 11.3934491 183 15.5905207 183 19.7878745 186.393449 23.1813236 190.589674 23.1813236 194.97135 23.1813236 197.87619 20.1026055 197.87619 15.7643989 197.87619 15.2647812 197.87619 14.8848458 197.75679 14.5046283L190.589674 14.5046283 190.589674 17.1108265 194.895419 17.1108265C194.721541 18.2240991 193.592179 20.3851577 190.589674 20.3851577 187.999565 20.3851577 185.884234 18.2348254 185.884234 15.5905207 185.884234 12.946216 187.999565 10.7961659 190.589674 10.7961659 192.06651 10.7961659 193.054737 11.4259101 193.613914 11.9689975L195.677307 9.9871803C194.352332 8.74914439 192.642059 8 190.589674 8L190.589674 8zM202.518683 12.3382065L202.518683 14.5046283 200.346899 14.5046283 200.346899 16.6764131 202.518683 16.6764131 202.518683 18.8431171 204.685105 18.8431171 204.685105 16.6764131 206.85689 16.6764131 206.85689 14.5046283 204.685105 14.5046283 204.685105 12.3382065 202.518683 12.3382065zM319.152866 16.8726147C318.67728 16.8726147 318.273886 17.1019092 317.942674 17.5605112 317.611463 18.0191132 317.445862 18.5711242 317.445862 19.2165638 317.445862 19.8620001 317.611463 20.4182571 317.942674 20.8853511 318.273886 21.3524451 318.67728 21.5859889 319.152866 21.5859889 319.611468 21.5859889 320.006367 21.3524451 320.337579 20.8853511 320.668791 20.4182571 320.834395 19.8620001 320.834395 19.2165638 320.834395 18.5711242 320.668791 18.0191132 320.337579 17.5605112 320.006367 17.1019092 319.611468 16.8726147 319.152866 16.8726147zM325.063694 10.757965C325.148621 10.5201688 325.157113 9.8237868 325.089174 8.66878981 325.021231 7.51379608 324.732486 6.29087918 324.222928 5 324.222928 5 323.679409 5.14437422 322.592355 5.43312265 321.505301 5.72187108 320.070073 6.47770375 318.286624 7.7006402 317.912949 7.59872611 317.428877 7.52229462 316.834397 7.47133921 316.239912 7.4203838 315.628454 7.39490772 315 7.39490772 314.371546 7.39490772 313.760088 7.4203838 313.165607 7.47133921 312.571123 7.52229462 312.087051 7.59872611 311.713376 7.7006402 309.929927 6.47770375 308.494696 5.72187108 307.407642 5.43312265 306.320591 5.14437422 305.77707 5 305.77707 5 305.267513 6.29087918 304.978769 7.51379608 304.910828 8.66878981 304.842887 9.8237868 304.859872 10.5201688 304.961783 10.757965 304.350316 11.4203887 303.87049 12.159234 303.522293 12.9745239 303.174096 13.7898138 303 14.7409728 303 15.8280271 303 18.1719892 303.416132 19.9851345 304.248408 21.2675184 305.080684 22.5499019 306.044581 23.4925676 307.140127 24.0955429 308.235673 24.6985184 309.318465 25.0552028 310.388535 25.1656067 311.458605 25.2760107 312.239914 25.3312118 312.732484 25.3312118 312.953293 25.3312118 313.27176 25.3354581 313.687899 25.3439507 314.104038 25.3524433 314.5414 25.3566895 315 25.3566895 315.475588 25.3566895 315.917196 25.3524433 316.324842 25.3439507 316.732486 25.3354581 317.046707 25.3312118 317.267516 25.3312118 317.760086 25.3312118 318.541395 25.2760107 319.611465 25.1656067 320.681535 25.0552028 321.764327 24.6985184 322.859873 24.0955429 323.95542 23.4925676 324.919317 22.5499019 325.751591 21.2675184 326.583868 19.9851345 327 18.1719892 327 15.8280271 327 14.7409728 326.825904 13.7898138 326.477708 12.9745239 326.129509 12.159234 325.658178 11.4203887 325.063694 10.757965zM315.025478 24.184715L314.974522 24.184715C313.734602 24.184715 312.58387 24.1295139 311.522292 24.0191101 310.460717 23.9087059 309.535034 23.6666701 308.745224 23.2929953 307.95541 22.9193204 307.335459 22.3800477 306.88535 21.6751617 306.435243 20.9702746 306.210191 20.0233616 306.210191 18.8343965 306.210191 18.2568997 306.316348 17.7048887 306.528662 17.1783472 306.740979 16.6518025 307.093417 16.167731 307.585987 15.7261163 308.384293 14.9957532 309.428868 14.698516 310.719747 14.8343982 312.010623 14.9702771 313.428866 15.0382198 314.974522 15.0382198 314.974522 15.0382198 314.978768 15.0382198 314.98726 15.0382198 314.995752 15.0382198 315.000002 15.0382198 315.000002 15.0382198 315.000002 15.0382198 315.004248 15.0382198 315.01274 15.0382198 315.021232 15.0382198 315.025478 15.0382198 315.025478 15.0382198 316.571134 15.0382198 317.989377 14.9702771 319.280256 14.8343982 320.571132 14.698516 321.615707 14.9957532 322.414013 15.7261163 322.906583 16.167731 323.259021 16.6518025 323.471338 17.1783472 323.683652 17.7048887 323.789809 18.2568997 323.789809 18.8343965 323.789809 20.0233616 323.564757 20.9702746 323.11465 21.6751617 322.664541 22.3800477 322.04459 22.9193204 321.254776 23.2929953 320.464966 23.6666701 319.539283 23.9087059 318.477708 24.0191101 317.41613 24.1295139 316.265398 24.184715 315.025478 24.184715zM310.847134 16.8726147C310.388532 16.8726147 309.993633 17.1019092 309.662421 17.5605112 309.331209 18.0191132 309.165605 18.5711242 309.165605 19.2165638 309.165605 19.8620001 309.331209 20.4182571 309.662421 20.8853511 309.993633 21.3524451 310.388532 21.5859889 310.847134 21.5859889 311.32272 21.5859889 311.726114 21.3524451 312.057326 20.8853511 312.388537 20.4182571 312.554142 19.8620001 312.554142 19.2165638 312.554142 18.5711242 312.388537 18.0191132 312.057326 17.5605112 311.726114 17.1019092 311.32272 16.8726147 310.847134 16.8726147zM25.273802 4L25.273802 7.87418959 22.9558643 7.87418959C22.9558643 7.87418959 21.8318164 7.63223698 21.8318164 8.99846422L21.8318164 11.1259238 25.2391078 11.1259238 24.8581515 14.9654191 21.7798885 14.9654191 21.7798885 26 17.317711 26 17.317711 15.0348076 15 15.0348076 15 11.1603913 17.1791608 11.1603913 17.1791608 8.98123048C17.1791608 7.52838104 17.3868727 4 21.4685474 4L25.273802 4zM345 3C341.687484 3 338.859387 4.171863 336.515625 6.515625 334.171863 8.859387 333 11.687484 333 15 333 18.312516 334.171863 21.140613 336.515625 23.484375 338.859387 25.8281367 341.687484 27 345 27 348.312516 27 351.140613 25.8281367 353.484375 23.484375 355.828137 21.140613 357 18.312516 357 15 357 11.687484 355.828137 8.859387 353.484375 6.515625 351.140613 4.171863 348.312516 3 345 3zM345 4.78125C347.593764 4.78125 349.859364 5.640615 351.796875 7.359375 351.640623 7.578126 351.421875 7.835937 351.140625 8.132814 350.859375 8.429688 350.273442 8.890623 349.382814 9.515625 348.492183 10.140627 347.500005 10.656249 346.40625 11.0625 345.249993 8.906238 343.984383 6.906258 342.609375 5.0625 343.390629 4.875 344.187495 4.78125 345 4.78125zM340.640625 5.71875C342.015633 7.593759 343.281243 9.578115 344.4375 11.671875 341.156235 12.546879 338.000016 12.968751 334.96875 12.9375 335.312502 11.343741 335.98437 9.91407 336.984375 8.648436 337.98438 7.382805 339.203118 6.406254 340.640625 5.71875zM334.734375 15C334.734375 14.90625 334.734375 14.8125 334.734375 14.71875 338.234391 14.781249 341.749983 14.296881 345.28125 13.265625 345.593751 13.828128 345.874998 14.406246 346.125 15 345.968748 15.031251 345.828126 15.062499 345.703125 15.09375 344.484369 15.500001 343.335942 16.062495 342.257814 16.78125 341.179683 17.500005 340.289067 18.249996 339.585936 19.03125 338.882808 19.812504 338.382813 20.406249 338.085936 20.8125 337.789062 21.218751 337.562502 21.578124 337.40625 21.890625 335.624991 19.921866 334.734375 17.625012 334.734375 15zM345 25.265625C342.656238 25.265625 340.562508 24.5468823 338.71875 23.109375 338.8125 22.921875 338.929686 22.710939 339.070314 22.476564 339.210939 22.242186 339.50781 21.843753 339.960936 21.28125 340.414065 20.718747 340.91406 20.195316 341.460936 19.710936 342.007815 19.226559 342.757809 18.695316 343.710936 18.117186 344.664066 17.539059 345.671871 17.062503 346.734375 16.6875 346.765626 16.6875 346.796874 16.6875 346.828125 16.6875 347.859381 19.375014 348.578124 21.968739 348.984375 24.46875 347.734368 25.0000026 346.406256 25.265625 345 25.265625zM350.71875 23.53125C350.343747 21.24999 349.687506 18.812514 348.75 16.21875 350.93751 15.843747 353.062491 15.984372 355.125 16.640625 354.656247 19.54689 353.187513 21.843741 350.71875 23.53125zM348.09375 14.578125C348.031251 14.390625 347.968749 14.218752 347.90625 14.0625 347.687499 13.562499 347.453127 13.062501 347.203125 12.5625 348.328131 12.093747 349.367184 11.53125 350.320314 10.875 351.273441 10.218747 351.898437 9.726564 352.195314 9.398436 352.492188 9.070311 352.734375 8.781252 352.921875 8.53125 354.453132 10.406259 355.234374 12.531237 355.265625 14.90625 352.828113 14.406249 350.437512 14.296875 348.09375 14.578125zM373.279795 14.7857104C373.279795 14.7857104 373.643044 14.6471503 374.369555 14.3700302 375.096063 14.0929072 375.459312 13.2952571 375.459312 11.977054 375.459312 10.6438753 375.06985 9.64774808 374.290912 8.98864655 373.511973 8.32954501 372.553295 8 371.414849 8L364 8 364 22.8746367 371.414849 22.8746367C371.414849 22.8746367 371.650773 22.8596573 372.122631 22.8296982 372.594486 22.7997391 373.115019 22.6499457 373.684244 22.3803134 374.253465 22.1106811 374.773998 21.6800249 375.245854 21.088332 375.717712 20.4966393 375.953636 19.6315826 375.953636 18.4931364 375.953636 18.4931364 375.949891 18.2984039 375.942402 17.9089333 375.934912 17.5194655 375.852525 17.0962989 375.695239 16.6394219 375.537952 16.182545 375.275817 15.7593784 374.908817 15.3699106 374.541817 14.9804428 373.998816 14.7857104 373.279795 14.7857104zM367.280509 10.6513703L371.414849 10.6513703C371.414849 10.6513703 371.583366 10.7150319 371.920406 10.8423581 372.257446 10.9696843 372.425966 11.4228108 372.425966 12.2017493 372.425966 12.9657063 372.29864 13.4525345 372.043988 13.6622484 371.789335 13.8719623 371.497237 13.9768178 371.167689 13.9768178L367.280509 13.9768178 367.280509 10.6513703zM371.212625 20.2232664L367.280509 20.2232664 367.280509 16.2686802 371.414849 16.2686802C371.414849 16.2686802 371.665754 16.3510679 372.167569 16.5158433 372.669385 16.6806158 372.920287 17.2723024 372.920287 18.2909118 372.920287 19.1747057 372.710579 19.7177063 372.291148 19.9199309 371.87172 20.1221555 371.512218 20.2232664 371.212625 20.2232664zM381.99786 11.7973001C380.634721 11.7973001 379.578677 12.0931434 378.829698 12.6848358 378.08072 13.2765281 377.537719 13.9281318 377.200679 14.639661 376.863639 15.3511903 376.665162 16.0065357 376.605242 16.6057202 376.545325 17.2049019 376.515365 17.5044898 376.515365 17.5044898 376.515365 17.5044898 376.526602 17.8003303 376.54907 18.3920226 376.57154 18.983715 376.743802 19.6353187 377.065864 20.3468474 377.387922 21.0583766 377.923436 21.7099783 378.672412 22.3016709 379.421391 22.8933639 380.529863 23.189206 381.99786 23.189206 381.99786 23.189206 382.252509 23.1817164 382.761817 23.1667368 383.271121 23.1517572 383.832845 23.0319225 384.447008 22.807229 385.061171 22.5825354 385.61915 22.1968174 386.120966 21.6500633 386.622781 21.1033088 386.873686 20.2981706 386.873686 19.2346198L384.379602 19.2346198C384.379602 19.2346198 384.29347 19.5005032 384.121205 20.0322786 383.94894 20.5640525 383.271124 20.8299359 382.087737 20.8299359 382.087737 20.8299359 381.668317 20.7438047 380.829459 20.5715398 379.990604 20.3992745 379.571182 19.6240934 379.571182 18.2459733L386.963563 18.2459733C386.963563 18.2459733 386.974797 17.908939 386.997268 17.234859 387.019735 16.560776 386.903646 15.8192983 386.648994 15.0104028 386.394341 14.2015073 385.918747 13.4637742 385.222196 12.7971834 384.525648 12.1305926 383.450878 11.7973001 381.99786 11.7973001zM384.244784 16.2686802L379.548714 16.2686802C379.548714 16.2686802 379.691019 15.8867074 379.975631 15.1227475 380.26024 14.3587905 380.95678 13.9768178 382.065269 13.9768178 383.158777 13.9768178 383.795399 14.3587905 383.975153 15.1227475 384.154909 15.8867074 384.244784 16.2686802 384.244784 16.2686802zM384.828987 8.87630179L378.942043 8.87630179 378.942043 10.7187766 384.828987 10.7187766 384.828987 8.87630179zM405.042914 4C406.511495 4 407.9133 4.27654657 409.248376 4.82964594 410.583445 5.38275154 411.765923 6.17424517 412.795836 7.20415799 413.825755 8.25314385 414.617248 9.44515879 415.170348 10.780234 415.723453 12.1153091 416 13.5075785 416 14.9570857 416 16.4638119 415.713917 17.8846909 415.141745 19.219766 414.569566 20.5548375 413.787609 21.7182416 412.795836 22.7100109 411.804069 23.7017801 410.640664 24.4837397 409.305588 25.0559146 407.97052 25.628089 406.549641 25.9141719 405.042914 25.9141719 404.127433 25.9141719 403.22627 25.8045068 402.339399 25.5851732 401.452534 25.3658396 400.608589 25.0368441 399.807542 24.5981773L399.807542 24.5981773 394 26.114432 395.544864 20.4499327C395.068051 19.6107446 394.705679 18.728654 394.457737 17.8036367 394.209795 16.8786256 394.085826 15.9297794 394.085826 14.9570857 394.085826 13.4503594 394.371909 12.0294805 394.944083 10.6944053 395.53533 9.35933012 396.326826 8.19593097 397.318596 7.20415799 398.310365 6.21239124 399.464232 5.4304279 400.780234 4.85825549 402.115309 4.28608309 403.536188 4 405.042914 4zM405.042914 5.85955876C403.803198 5.85955876 402.630262 6.09795925 401.524057 6.57477271 400.417852 7.05157993 399.449939 7.70003825 398.620286 8.5201539 397.790633 9.34026955 397.13741 10.3034143 396.660598 11.4096192 396.183786 12.5158242 395.945384 13.6983026 395.945384 14.9570857 395.945384 15.8153474 396.064585 16.6545236 396.302991 17.4746393 396.541397 18.2947549 396.889465 19.0671817 397.347204 19.7919384L397.347204 19.7919384 397.547464 20.1352388 396.631989 23.511051 400.065019 22.5955764 400.408322 22.7958364C401.114006 23.2154314 401.857817 23.5348904 402.639793 23.7542241 403.421762 23.9735578 404.222799 24.0832228 405.042914 24.0832228 406.301697 24.0832228 407.48417 23.8448204 408.590375 23.3680082 409.696579 22.891196 410.659724 22.2379731 411.479846 21.4083203 412.299962 20.5786676 412.948414 19.6107508 413.425227 18.5045521 413.921114 17.3983471 414.169051 16.2158687 414.169051 14.9570857 414.169051 13.7364487 413.940181 12.5730433 413.482446 11.4668384 413.024706 10.3606334 412.357175 9.37841562 411.479846 8.5201539 410.621584 7.66189217 409.63936 7.00390357 408.533162 6.54616315 407.426957 6.08842273 406.263551 5.85955876 405.042914 5.85955876zM401.695709 9.89336892C401.772001 9.91244196 401.86736 9.93150876 401.981792 9.9505818 402.09623 9.96965483 402.201125 10.1126964 402.296491 10.3797127 402.410923 10.6467289 402.573037 11.0329392 402.782834 11.5383622 402.992631 12.043779 403.1166 12.3346304 403.154746 12.4109225 403.192892 12.4681416 403.216733 12.5396593 403.22627 12.6254879 403.235806 12.7113104 403.221502 12.8019073 403.183356 12.8972663 403.126136 12.9735584 403.083222 13.0450761 403.054619 13.1118317 403.026009 13.1785873 402.973558 13.2596415 402.897266 13.3550067 402.840053 13.4312926 402.773298 13.512353 402.697006 13.5981754 402.62072 13.6840041 402.553964 13.7555217 402.496751 13.8127409 402.420459 13.889033 402.36324 13.9700872 402.3251 14.0559158 402.286954 14.1417383 402.306027 14.2514082 402.382313 14.3849133 402.458605 14.5184183 402.630256 14.7758981 402.897266 15.1573463 403.164283 15.5387946 403.498048 15.9107001 403.89857 16.2730816 404.413529 16.749895 404.876025 17.0788862 405.286083 17.2600738 405.696141 17.4412677 405.967925 17.5700044 406.10143 17.6462904 406.234936 17.7035095 406.344605 17.7273508 406.430428 17.7178143 406.516257 17.7082777 406.606847 17.6558269 406.702212 17.5604679 406.778498 17.4841758 406.916772 17.3220612 407.117032 17.074118 407.317293 16.8261809 407.465103 16.6354568 407.560468 16.5019456 407.655827 16.3684405 407.751192 16.3016911 407.846551 16.3016911 407.941916 16.3016911 408.046812 16.3207579 408.16125 16.358904 408.294755 16.3970501 408.609448 16.5400916 409.105334 16.7880349 409.601214 17.0359781 409.915907 17.1885562 410.049412 17.2457691 410.182923 17.3220612 410.292587 17.3792803 410.378416 17.4174264 410.464238 17.4555662 410.526225 17.5032488 410.564371 17.5604679 410.602511 17.6176808 410.616816 17.7702589 410.60728 18.0182021 410.597743 18.2661454 410.535762 18.5522284 410.421324 18.8764638 410.306892 19.200693 410.035113 19.4867761 409.605983 19.7347193 409.176852 19.9826607 408.828781 20.1257022 408.561765 20.1638471 408.332901 20.2019919 408.070653 20.2210643 407.775033 20.2210643 407.479408 20.2210643 407.169483 20.1733836 406.845254 20.0780215 406.635457 20.0017312 406.401818 19.9206746 406.144345 19.8348465 405.886865 19.7490241 405.596014 19.6298239 405.271778 19.4772396 403.898563 18.8859941 402.792377 18.0754275 401.953188 17.0455146 401.113993 16.0155956 400.665802 15.4529659 400.608583 15.357607 400.532291 15.2622418 400.327268 14.9332506 399.993498 14.3706085 399.659729 13.8079726 399.492848 13.1928921 399.492848 12.5253545 399.492848 11.8578169 399.621585 11.3428699 399.879064 10.9804946 400.136542 10.6181132 400.322494 10.3701761 400.436932 10.2366711 400.570437 10.1031599 400.703942 10.0125692 400.837453 9.96488657 400.970958 9.91720398 401.08539 9.89336892 401.180755 9.89336892L401.180755 9.89336892zM430.964844 20.7148417C430.964844 21.7174529 431.072264 22.4908825 431.287109 23.0351564 431.501954 23.5794299 431.881508 24.080727 432.425781 24.5390624 432.970053 24.9973982 433.628901 25.3554674 434.402342 25.6132812 435.175787 25.871095 435.963537 26 436.765624 26 437.653651 26 438.470048 25.9140634 439.214842 25.7421875 440.102869 25.5416657 440.947913 25.2408872 441.75 24.8398436L441.75 21.53125C440.861977 22.1328157 439.902351 22.4335936 438.871094 22.4335936 438.240883 22.4335936 437.682294 22.2760431 437.195312 21.9609376 436.794271 21.7317697 436.522135 21.4166689 436.378906 21.0156238 436.29297 20.8151009 436.25 20.0273511 436.25 18.6523417L436.25 13.625 441.75 13.625 441.75 9.5 436.25 9.5 436.25 4 432.683594 4C432.56901 5.14583957 432.325523 6.08398043 431.953125 6.81445532 431.580727 7.54492553 431.07943 8.16796553 430.449219 8.68359404 429.933591 9.14192894 429.117193 9.54296553 428 9.88671787L428 13.625 430.964844 13.625 430.964844 20.7148417z"/>
  </g>
</svg>
