<svg xmlns="http://www.w3.org/2000/svg" xmlns:xlink="http://www.w3.org/1999/xlink" width="747" height="60" viewBox="0 0 747 60">
  <defs>
    <path id="a" d="M42,4.36738561 C41.1168053,4.76901212 40.1679037,5.04062323 39.1720317,5.16247977 C40.1884371,4.53793212 40.9692212,3.54834125 41.3370265,2.36899106 C40.3858148,2.94774381 39.3319359,3.36805674 38.2102967,3.59439934 C37.3119586,2.61323051 36.0324685,2 34.6161744,2 C31.8970333,2 29.6925117,4.26053085 29.6925117,7.04901896 C29.6925117,7.44432893 29.7358886,7.82990091 29.819819,8.19941835 C25.7277608,7.98913029 22.099245,5.97889224 19.6709088,2.92431999 C19.2468932,3.6699346 19.0040853,4.53714256 19.0040853,5.46225211 C19.0040853,7.2140385 19.8734199,8.75922149 21.1944902,9.66511824 C20.3872693,9.63879933 19.6280453,9.41166717 18.9645584,9.03346449 C18.9640451,9.05451961 18.9640451,9.07583793 18.9640451,9.09689305 C18.9640451,11.5432354 20.661134,13.5840034 22.9139093,14.0477425 C22.5004171,14.1632825 22.0653648,14.2248687 21.6164524,14.2248687 C21.2994674,14.2248687 20.9904391,14.193286 20.6901375,14.1343317 C21.3164075,16.1403587 23.1351571,17.6000053 25.2896285,17.6405364 C23.6046029,18.9949073 21.481445,19.8021081 19.1742562,19.8021081 C18.7769341,19.8021081 18.3852587,19.7781579 18,19.7315735 C20.1788548,21.1638484 22.7670952,22 25.5478365,22 C34.6043676,22 39.5572904,14.3064573 39.5572904,7.63435144 C39.5572904,7.41537814 39.5526704,7.19772078 39.5431737,6.98111618 C40.5054221,6.26945296 41.3401065,5.38013712 42,4.36738561"/>
    <path id="b" d="M42,4.36738561 C41.1168053,4.76901212 40.1679037,5.04062323 39.1720317,5.16247977 C40.1884371,4.53793212 40.9692212,3.54834125 41.3370265,2.36899106 C40.3858148,2.94774381 39.3319359,3.36805674 38.2102967,3.59439934 C37.3119586,2.61323051 36.0324685,2 34.6161744,2 C31.8970333,2 29.6925117,4.26053085 29.6925117,7.04901896 C29.6925117,7.44432893 29.7358886,7.82990091 29.819819,8.19941835 C25.7277608,7.98913029 22.099245,5.97889224 19.6709088,2.92431999 C19.2468932,3.6699346 19.0040853,4.53714256 19.0040853,5.46225211 C19.0040853,7.2140385 19.8734199,8.75922149 21.1944902,9.66511824 C20.3872693,9.63879933 19.6280453,9.41166717 18.9645584,9.03346449 C18.9640451,9.05451961 18.9640451,9.07583793 18.9640451,9.09689305 C18.9640451,11.5432354 20.661134,13.5840034 22.9139093,14.0477425 C22.5004171,14.1632825 22.0653648,14.2248687 21.6164524,14.2248687 C21.2994674,14.2248687 20.9904391,14.193286 20.6901375,14.1343317 C21.3164075,16.1403587 23.1351571,17.6000053 25.2896285,17.6405364 C23.6046029,18.9949073 21.481445,19.8021081 19.1742562,19.8021081 C18.7769341,19.8021081 18.3852587,19.7781579 18,19.7315735 C20.1788548,21.1638484 22.7670952,22 25.5478365,22 C34.6043676,22 39.5572904,14.3064573 39.5572904,7.63435144 C39.5572904,7.41537814 39.5526704,7.19772078 39.5431737,6.98111618 C40.5054221,6.26945296 41.3401065,5.38013712 42,4.36738561"/>
  </defs>
  <g fill="none" fill-rule="evenodd">
    <g transform="translate(15 3)">
      <path fill="#FFFFFF" d="M158.05088 4.30137122C152.080856 3.89954293 146.713657 3.89954293 141.94912 4.30137122 141.202867 4.38747689 140.571432 4.8036497 140.054795 5.54990343 139.538159 6.29615716 139.236792 7.07109992 139.150686 7.87475651 138.949771 10.5153432 138.949771 13.1558914 139.150686 15.7964781 139.236792 16.6001347 139.538159 17.3750783 140.054795 18.1213312 140.571432 18.8675841 141.202867 19.2981081 141.94912 19.4129162 147.74693 19.7860425 153.114129 19.7860425 158.05088 19.4129162 158.797134 19.2694061 159.428568 18.8245312 159.945205 18.0782783 160.461842 17.3320254 160.763209 16.5714319 160.849314 15.7964781 161.050229 13.0984858 161.050229 10.3861847 160.849314 7.65949233 160.763209 6.82713293 160.483367 6.0665402 160.009783 5.37769209 159.536202 4.68884398 158.88324 4.33007403 158.05088 4.30137122zM147.244619 15.7534253L147.244619 7.83170367 154.133072 11.7925645 147.244619 15.7534253zM220.741817 7.35499139C220.645594 9.47253957 219.165134 12.3733982 216.305155 16.0547371 213.348637 19.9005367 210.846195 21.823122 208.798141 21.823122 207.531197 21.823122 206.458587 20.6524015 205.581569 18.3097027 204.996366 16.1629101 204.410534 14.0173753 203.825645 11.8699538 203.175664 9.52851277 202.477571 8.35621999 201.730423 8.35621999 201.568164 8.35621999 200.99774 8.69929173 200.022612 9.38166172L199 8.06251788C200.07261 7.1200926 201.132013 6.17578058 202.173807 5.23052518 203.606155 3.99408333 204.680337 3.34253005 205.397612 3.27649424 207.09033 3.11392038 208.132437 4.27237709 208.523621 6.74934872 208.94625 9.4234844 209.23838 11.0866433 209.402526 11.7372533 209.890248 13.9554274 210.427653 15.0635711 211.013171 15.0635711 211.468818 15.0635711 212.153704 14.3431519 213.064998 12.9054581 213.975663 11.466192 214.463699 10.3706265 214.52942 9.62001953 214.659291 8.37760302 214.17094 7.75529416 213.064998 7.75529416 212.543629 7.75529416 212.006224 7.87415861 211.454667 8.11220197 212.523504 4.61010306 214.566212 2.9076371 217.581532 3.0038607 219.817316 3.06958205 220.87043 4.51985413 220.741817 7.35499139"/>
      <use fill="#FFFFFF" xlink:href="#a"/>
      <path fill="#FFFFFF" d="M248.288848 17.8654476C246.987001 18.3140994 245.57494 18.2616075 244.313262 17.7182567 243.052442 17.1754401 242.09439 16.2074795 241.615364 14.9922863L241.614792 14.9916184C241.133479 13.7746888 241.1878 12.4558476 241.76875 11.2780531 242.349556 10.1003922 243.385944 9.20415718 244.688506 8.75510468 247.376683 7.82841633 250.370773 9.11707145 251.363133 11.6281324 252.356208 14.1378577 250.976739 16.9362215 248.288848 17.8654476M233.514809 18.1409965C230.649517 18.1409965 228.318429 15.9641203 228.318429 13.2877033 228.318429 10.6106185 230.649517 8.4325402 233.514809 8.4325402 236.379673 8.4325402 238.710617 10.6106185 238.710617 13.2877033 238.710617 15.9641203 236.379673 18.1409965 233.514809 18.1409965M246.277254 7.23097082C245.595953 7.25100588 244.907077 7.37028127 244.23321 7.60255441 242.601434 8.16580676 241.301874 9.288438 240.574973 10.7644877 240.255765 11.412288 240.065499 12.0936137 240.000885 12.7832205 239.728136 9.69474904 236.977061 7.25447862 233.614445 7.20692874 235.483089 6.4570832 237.642208 6.06038899 239.972724 6.06038899 242.3071 6.06038899 244.415614 6.45320975 246.277254 7.23097082M252.596078 11.2027213C252.375792 10.6448116 252.075168 10.1361882 251.713218 9.6815259 252.021419 8.46633267 252.993765 7.25354365 252.993765 7.25354365L248.667237 7.25087231C246.228508 5.77535686 243.258576 5 239.972724 5 236.569939 5 233.493938 5.79792969 231.070648 7.27918853L227 7.2817263C227 7.2817263 227.958481 8.47701804 228.274114 9.68339584 227.476739 10.6928958 227.004146 11.9394773 227.004146 13.2877033 227.004146 16.6414389 229.924617 19.3694128 233.514809 19.3694128 235.565858 19.3694128 237.397192 18.4779862 238.591397 17.0891558L239.975011 19.0257447 241.372063 17.0732613C242.000043 17.8201683 242.812 18.4237579 243.762761 18.8332746 245.342789 19.5144667 247.112082 19.5800481 248.744287 19.0174636 252.112764 17.853293 253.840459 14.3474245 252.596078 11.2027213M233.430754 12.2232806C232.832079 12.2232806 232.348336 12.6747373 232.348336 13.2334484 232.348336 13.7908237 232.832079 14.2449518 233.430754 14.2449518 234.027428 14.2449518 234.512029 13.7908237 234.512029 13.2334484 234.512029 12.6747373 234.027428 12.2232806 233.430754 12.2232806M246.475297 12.2232806C245.876336 12.2232806 245.394165 12.6747373 245.394165 13.2334484 245.394165 13.7908237 245.876336 14.2449518 246.475297 14.2449518 247.072256 14.2449518 247.555428 13.7908237 247.555428 13.2334484 247.555428 12.6747373 247.072256 12.2232806 246.475297 12.2232806M233.434028 15.2033623C232.270271 15.2033623 231.323083 14.3199497 231.323083 13.2335151 231.323083 12.147882 232.270271 11.2648701 233.434028 11.2648701 234.593639 11.2648701 235.537682 12.147882 235.537682 13.2335151 235.537682 14.3199497 234.593639 15.2033623 233.434028 15.2033623M233.434028 10.2303931C231.659445 10.2303931 230.215935 11.5772834 230.215935 13.2335151 230.215935 14.8896133 231.659445 16.237305 233.434028 16.237305 235.204465 16.237305 236.644974 14.8896133 236.644974 13.2335151 236.644974 11.5772834 235.204465 10.2303931 233.434028 10.2303931M246.475297 15.2033623C245.312397 15.2033623 244.366639 14.3199497 244.366639 13.2335151 244.366639 12.147882 245.312397 11.2648701 246.475297 11.2648701 247.636767 11.2648701 248.581381 12.147882 248.581381 13.2335151 248.581381 14.3199497 247.636767 15.2033623 246.475297 15.2033623M246.475297 10.2303931C244.702572 10.2303931 243.259348 11.5772834 243.259348 13.2335151 243.259348 14.8896133 244.702572 16.237305 246.475297 16.237305 248.246735 16.237305 249.688673 14.8896133 249.688673 13.2335151 249.688673 11.5772834 248.246735 10.2303931 246.475297 10.2303931M276.530343 10.6103809C276.569043 10.6103809 276.67546 10.5716814 276.849606 10.494286 277.023749 10.4168905 277.149518 10.378191 277.226913 10.378191 277.768692 10.378191 278.155673 10.4362385 278.387863 10.5523334 278.697452 10.707128 278.861917 10.9102924 278.881265 11.161834 278.900616 11.4133719 278.774847 11.6358842 278.503958 11.8293783 278.271768 11.9841729 277.807392 12.1970112 277.110818 12.4679007 276.569039 12.6613949 276.24978 12.8742332 276.153036 13.1064232 276.056289 13.3386131 276.143358 13.706246 276.414248 14.2093255 277.381711 16.0668565 278.73614 17.2084435 280.477573 17.6341276 280.825858 17.7502226 281 17.8663176 281 17.9824126 281 18.3306976 280.883905 18.5822355 280.651715 18.73703 280.032541 19.0079196 279.355326 19.2401073 278.620053 19.4335999 278.233068 19.5496957 278.000878 19.7625344 277.923483 20.0721224 277.846087 20.4978061 277.739666 20.7590172 277.60422 20.8557635 277.468777 20.9525098 277.188217 20.9621842 276.762533 20.8847873 275.446785 20.6138977 274.227799 20.8847832 273.105541 21.6974522 271.983283 22.5101212 270.938439 22.9067751 269.970976 22.8874258 269.003513 22.8680765 267.958669 22.4520737 266.836412 21.6394047 265.752853 20.8654341 264.572567 20.6138977 263.295515 20.8847873 262.86983 20.9621842 262.589271 20.9525098 262.453826 20.8557635 262.318381 20.7590172 262.192613 20.4978061 262.076517 20.0721224 261.99912 19.6851371 261.786282 19.4722984 261.437995 19.4335999 260.702723 19.3175042 260.044858 19.1046666 259.46438 18.7950775 259.232189 18.6789825 259.077397 18.4274446 259 18.0404601 259 17.846966 259.212839 17.6921751 259.638522 17.5760801 261.457353 17.0730006 262.850479 15.7959669 263.817942 13.7449456 263.972737 13.3579611 263.856642 13.0290277 263.469657 12.7581382 263.353562 12.7194386 263.17942 12.6613911 262.94723 12.5839957 262.715038 12.5066003 262.540898 12.4292012 262.424802 12.3518057 262.115214 12.1970112 261.902375 12.0809162 261.78628 12.0035208 261.2445 11.6939317 261.07036 11.3263025 261.263852 10.9006184 261.496043 10.3201398 261.94107 10.146001 262.598945 10.378191 262.985929 10.5329855 263.276163 10.6297289 263.469657 10.6684284 263.856642 10.707128 264.050132 10.5329855 264.050132 10.146001 264.011432 9.1011424 264.011432 8.05629495 264.050132 7.01143635 264.204926 4.80562045 265.365865 3.29640049 267.532982 2.48373186 268.964828 1.90325321 270.445023 1.84520572 271.973617 2.30958938 273.502207 2.77397305 274.653472 3.68337387 275.427441 5.03782157 275.775726 5.69569564 275.988568 6.74053938 276.065963 8.17238622 276.065963 8.40457619 276.046615 8.74318347 276.007916 9.18821921 275.969216 9.63325123 275.949868 9.97185851 275.949868 10.2040485 275.911169 10.4362385 275.949868 10.5813553 276.065963 10.6394028 276.182058 10.697454 276.336849 10.6877764 276.530343 10.6103809zM119.9978 1C113.351362 1 110 5.48031068 110 9.21658252 110 11.4788447 110.91105 13.491233 112.864725 14.2415243 113.185112 14.3645631 113.47225 14.245767 113.565112 13.9121553 113.629712 13.6812621 113.782662 13.0988932 113.850825 12.8566117 113.944637 12.5267961 113.9083 12.4111262 113.649662 12.1235146 113.086312 11.4987184 112.726262 10.6899223 112.726262 9.54416505 112.726262 6.2203301 115.3713 3.24462136 119.613762 3.24462136 123.370537 3.24462136 125.43465 5.40282524 125.43465 8.28519417 125.43465 12.0777379 123.6496 15.2783107 120.999337 15.2783107 119.535862 15.2783107 118.440512 14.1403689 118.791537 12.7449612 119.21215 11.078466 120.026537 9.2802233 120.026537 8.07752427 120.026537 7.00099029 119.411887 6.10287379 118.139837 6.10287379 116.643825 6.10287379 115.442075 7.55812621 115.442075 9.50754369 115.442075 10.7488738 115.8881 11.5887087 115.8881 11.5887087 115.8881 11.5887087 114.357175 17.6877282 114.0888 18.7557767 113.554187 20.8829417 114.008525 23.4906505 114.047 23.7541456 114.069325 23.910233 114.282837 23.947301 114.379262 23.8293981 114.51725 23.6599126 116.299212 21.591699 116.904837 19.5252718 117.076312 18.94 117.889037 15.9098058 117.889037 15.9098058 118.374962 16.7815728 119.79545 17.5492816 121.306187 17.5492816 125.80325 17.5492816 128.854175 13.6946602 128.854175 8.53506796 128.854175 4.6333301 125.33965 1 119.9978 1M84.6442224 8.81845965L84.6442224 21.7135264 80.0252903 21.7135264 80.0252903 8.81845965 84.6442224 8.81845965zM95.4134155 8.53015781C98.3480123 8.53015781 99.955557 10.5744113 99.955557 14.1127148L99.955557 21.71355 95.3368548 21.71355 95.3368548 14.6893657C95.3368548 13.1955518 94.8519704 12.3305754 93.7290802 12.3305754 92.836102 12.3305754 92.4277783 12.9596491 92.2236164 13.4574297 92.1215355 13.6933323 92.0960152 14.060292 92.0960152 14.4010403L92.0960152 21.71355 87.4770831 21.71355 87.4770831 13.2217632C87.4770831 11.4918104 87.4260427 10.0242079 87.3752321 8.81848326L91.3559285 8.81848326 91.5600904 10.4698018 91.6366511 10.4698018C92.0960152 9.78806911 93.3209864 8.53015781 95.4134155 8.53015781zM82.3476314 3C83.7765345 3 84.6697427 3.94337444 84.6952629 5.2539447 84.6952629 6.48588074 83.7765345 7.48144185 82.3476314 7.48144185L82.3221112 7.48144185C80.8932081 7.48144185 80 6.48588074 80 5.2539447 80 3.94337444 80.9184984 3 82.3476314 3zM69.7679712 16.6182793C69.7146741 17.7723213 69.519125 18.3991968 69.3546817 18.8161784 69.1371309 19.3684124 68.8770943 19.7629455 68.4571663 20.176934 68.0372384 20.5911095 67.6374154 20.8475841 67.0773219 21.0623418 66.6543592 21.2243454 66.0189669 21.4172158 64.8490864 21.4699698 63.5838022 21.5268395 63.2044636 21.538812 60 21.538812 56.7955364 21.538812 56.4161978 21.5268395 55.1511032 21.4699698 53.9810331 21.4172158 53.3456408 21.2243454 52.9228678 21.0623418 52.3625846 20.8475841 51.9627616 20.5911095 51.5430233 20.176934 51.1230954 19.7629455 50.8630587 19.3684124 50.6453183 18.8161784 50.480875 18.3991968 50.2855156 17.7723213 50.2320288 16.6182793 50.1743693 15.3703276 50.1620408 14.9959982 50.1620408 11.8358052 50.1620408 8.675425 50.1743693 8.30109561 50.2320288 7.05314391 50.2855156 5.89910193 50.480875 5.27260062 50.6453183 4.85543193 50.8630587 4.30282373 51.1230954 3.90885187 51.5430233 3.49448925 51.9627616 3.0803137 52.3625846 2.82383914 52.9228678 2.60908145 53.3456408 2.44707783 53.9810331 2.25420747 55.1511032 2.20164047 56.4163874 2.14477084 56.7959158 2.13242414 60 2.13242414 63.2042739 2.13242414 63.5836126 2.14477084 64.8490864 2.20164047 66.0189669 2.25420747 66.6543592 2.44707783 67.0773219 2.60908145 67.6374154 2.82383914 68.0372384 3.0803137 68.4571663 3.49448925 68.8770943 3.90885187 69.1371309 4.30282373 69.3546817 4.85543193 69.519125 5.27260062 69.7146741 5.89910193 69.7679712 7.05314391 69.8256307 8.30109561 69.8379592 8.675425 69.8379592 11.8358052 69.8379592 14.9959982 69.8256307 15.3703276 69.7679712 16.6182793M71.9279256 6.95605398C71.8696972 5.69612972 71.666751 4.83597653 71.3701081 4.08282804 71.0634128 3.30461202 70.653158 2.64462497 69.9859012 1.98650864 69.3188342 1.32876644 68.6496807.923757383 67.8604666.62145039 67.0972371.328871097 66.2249478.128704957 64.9475248.0712741116 63.6676361.0136561946 63.2590883-9.9475983e-14 60-9.9475983e-14 56.7409117-9.9475983e-14 56.3323639.0136561946 55.0524752.0712741116 53.7750522.128704957 52.9029525.328871097 52.1395334.62145039 51.3503193.923757383 50.6811658 1.32876644 50.0140988 1.98650864 49.346842 2.64462497 48.9365872 3.30461202 48.6300816 4.08282804 48.333249 4.83597653 48.1304925 5.69612972 48.072264 6.95605398 48.0138459 8.21841016 48 8.62136143 48 11.8358052 48 15.0502489 48.0138459 15.4530131 48.072264 16.7155563 48.1304925 17.9752935 48.333249 18.8358209 48.6300816 19.5885952 48.9365872 20.3668112 49.346842 21.0269853 50.0140988 21.6849146 50.6811658 22.3430309 51.3503193 22.7476659 52.1395334 23.0501599 52.9029525 23.3425521 53.7750522 23.5427183 55.0524752 23.6001491 56.3323639 23.657767 56.7409117 23.6714232 60 23.6714232 63.2590883 23.6714232 63.6676361 23.657767 64.9475248 23.6001491 66.2249478 23.5427183 67.0972371 23.3425521 67.8604666 23.0501599 68.6496807 22.7476659 69.3188342 22.3430309 69.9859012 21.6849146 70.653158 21.0269853 71.0634128 20.3668112 71.3701081 19.5885952 71.666751 18.8358209 71.8696972 17.9752935 71.9279256 16.7155563 71.9863438 15.4530131 72 15.0502489 72 11.8358052 72 8.62136143 71.9863438 8.21841016 71.9279256 6.95605398M60 15.7810237C57.7909212 15.7810237 56.0000632 14.0146978 56.0000632 11.8356929 56.0000632 9.65687513 57.7909212 7.89036217 60 7.89036217 62.2090788 7.89036217 64.0001264 9.65687513 64.0001264 11.8356929 64.0001264 14.0146978 62.2090788 15.7810237 60 15.7810237M60 5.75793803C56.596763 5.75793803 53.8378327 8.47907511 53.8378327 11.8356929 53.8378327 15.1924978 56.596763 17.9134478 60 17.9134478 63.403237 17.9134478 66.1621673 15.1924978 66.1621673 11.8356929 66.1621673 8.47907511 63.403237 5.75793803 60 5.75793803M66.4056838 6.93807644C65.6104002 6.93807644 64.9657141 6.30222157 64.9657141 5.5178322 64.9657141 4.73344283 65.6104002 4.09740089 66.4056838 4.09740089 67.2009673 4.09740089 67.8456534 4.73344283 67.8456534 5.5178322 67.8456534 6.30222157 67.2009673 6.93807644 66.4056838 6.93807644M175.589674 4C171.394014 4 168 7.39344909 168 11.5905207 168 15.7878745 171.393449 19.1813236 175.589674 19.1813236 179.97135 19.1813236 182.87619 16.1026055 182.87619 11.7643989 182.87619 11.2647812 182.87619 10.8848458 182.75679 10.5046283L175.589674 10.5046283 175.589674 13.1108265 179.895419 13.1108265C179.721541 14.2240991 178.592179 16.3851577 175.589674 16.3851577 172.999565 16.3851577 170.884234 14.2348254 170.884234 11.5905207 170.884234 8.94621597 172.999565 6.79616592 175.589674 6.79616592 177.06651 6.79616592 178.054737 7.42591013 178.613914 7.96899748L180.677307 5.9871803C179.352332 4.74914439 177.642059 4 175.589674 4L175.589674 4zM187.518683 8.33820655L187.518683 10.5046283 185.346899 10.5046283 185.346899 12.6764131 187.518683 12.6764131 187.518683 14.8431171 189.685105 14.8431171 189.685105 12.6764131 191.85689 12.6764131 191.85689 10.5046283 189.685105 10.5046283 189.685105 8.33820655 187.518683 8.33820655zM304.152866 13.8726147C303.67728 13.8726147 303.273886 14.1019092 302.942674 14.5605112 302.611463 15.0191132 302.445862 15.5711242 302.445862 16.2165638 302.445862 16.8620001 302.611463 17.4182571 302.942674 17.8853511 303.273886 18.3524451 303.67728 18.5859889 304.152866 18.5859889 304.611468 18.5859889 305.006367 18.3524451 305.337579 17.8853511 305.668791 17.4182571 305.834395 16.8620001 305.834395 16.2165638 305.834395 15.5711242 305.668791 15.0191132 305.337579 14.5605112 305.006367 14.1019092 304.611468 13.8726147 304.152866 13.8726147zM310.063694 7.75796504C310.148621 7.52016876 310.157113 6.8237868 310.089174 5.66878981 310.021231 4.51379608 309.732486 3.29087918 309.222928 2 309.222928 2 308.679409 2.14437422 307.592355 2.43312265 306.505301 2.72187108 305.070073 3.47770375 303.286624 4.7006402 302.912949 4.59872611 302.428877 4.52229462 301.834397 4.47133921 301.239912 4.4203838 300.628454 4.39490772 300 4.39490772 299.371546 4.39490772 298.760088 4.4203838 298.165607 4.47133921 297.571123 4.52229462 297.087051 4.59872611 296.713376 4.7006402 294.929927 3.47770375 293.494696 2.72187108 292.407642 2.43312265 291.320591 2.14437422 290.77707 2 290.77707 2 290.267513 3.29087918 289.978769 4.51379608 289.910828 5.66878981 289.842887 6.8237868 289.859872 7.52016876 289.961783 7.75796504 289.350316 8.42038869 288.87049 9.15923404 288.522293 9.97452392 288.174096 10.7898138 288 11.7409728 288 12.8280271 288 15.1719892 288.416132 16.9851345 289.248408 18.2675184 290.080684 19.5499019 291.044581 20.4925676 292.140127 21.0955429 293.235673 21.6985184 294.318465 22.0552028 295.388535 22.1656067 296.458605 22.2760107 297.239914 22.3312118 297.732484 22.3312118 297.953293 22.3312118 298.27176 22.3354581 298.687899 22.3439507 299.104038 22.3524433 299.5414 22.3566895 300 22.3566895 300.475588 22.3566895 300.917196 22.3524433 301.324842 22.3439507 301.732486 22.3354581 302.046707 22.3312118 302.267516 22.3312118 302.760086 22.3312118 303.541395 22.2760107 304.611465 22.1656067 305.681535 22.0552028 306.764327 21.6985184 307.859873 21.0955429 308.95542 20.4925676 309.919317 19.5499019 310.751591 18.2675184 311.583868 16.9851345 312 15.1719892 312 12.8280271 312 11.7409728 311.825904 10.7898138 311.477708 9.97452392 311.129509 9.15923404 310.658178 8.42038869 310.063694 7.75796504zM300.025478 21.184715L299.974522 21.184715C298.734602 21.184715 297.58387 21.1295139 296.522292 21.0191101 295.460717 20.9087059 294.535034 20.6666701 293.745224 20.2929953 292.95541 19.9193204 292.335459 19.3800477 291.88535 18.6751617 291.435243 17.9702746 291.210191 17.0233616 291.210191 15.8343965 291.210191 15.2568997 291.316348 14.7048887 291.528662 14.1783472 291.740979 13.6518025 292.093417 13.167731 292.585987 12.7261163 293.384293 11.9957532 294.428868 11.698516 295.719747 11.8343982 297.010623 11.9702771 298.428866 12.0382198 299.974522 12.0382198 299.974522 12.0382198 299.978768 12.0382198 299.98726 12.0382198 299.995752 12.0382198 300.000002 12.0382198 300.000002 12.0382198 300.000002 12.0382198 300.004248 12.0382198 300.01274 12.0382198 300.021232 12.0382198 300.025478 12.0382198 300.025478 12.0382198 301.571134 12.0382198 302.989377 11.9702771 304.280256 11.8343982 305.571132 11.698516 306.615707 11.9957532 307.414013 12.7261163 307.906583 13.167731 308.259021 13.6518025 308.471338 14.1783472 308.683652 14.7048887 308.789809 15.2568997 308.789809 15.8343965 308.789809 17.0233616 308.564757 17.9702746 308.11465 18.6751617 307.664541 19.3800477 307.04459 19.9193204 306.254776 20.2929953 305.464966 20.6666701 304.539283 20.9087059 303.477708 21.0191101 302.41613 21.1295139 301.265398 21.184715 300.025478 21.184715zM295.847134 13.8726147C295.388532 13.8726147 294.993633 14.1019092 294.662421 14.5605112 294.331209 15.0191132 294.165605 15.5711242 294.165605 16.2165638 294.165605 16.8620001 294.331209 17.4182571 294.662421 17.8853511 294.993633 18.3524451 295.388532 18.5859889 295.847134 18.5859889 296.32272 18.5859889 296.726114 18.3524451 297.057326 17.8853511 297.388537 17.4182571 297.554142 16.8620001 297.554142 16.2165638 297.554142 15.5711242 297.388537 15.0191132 297.057326 14.5605112 296.726114 14.1019092 296.32272 13.8726147 295.847134 13.8726147zM10.273802 1L10.273802 4.87418959 7.95586432 4.87418959C7.95586432 4.87418959 6.83181645 4.63223698 6.83181645 5.99846422L6.83181645 8.12592379 10.2391078 8.12592379 9.8581515 11.9654191 6.77988848 11.9654191 6.77988848 23 2.31771096 23 2.31771096 12.0348076 5.06261699e-14 12.0348076 5.06261699e-14 8.16039126 2.17916078 8.16039126 2.17916078 5.98123048C2.17916078 4.52838104 2.38687267 1 6.4685474 1L10.273802 1zM330 0C326.687484 0 323.859387 1.171863 321.515625 3.515625 319.171863 5.859387 318 8.687484 318 12 318 15.312516 319.171863 18.140613 321.515625 20.484375 323.859387 22.8281367 326.687484 24 330 24 333.312516 24 336.140613 22.8281367 338.484375 20.484375 340.828137 18.140613 342 15.312516 342 12 342 8.687484 340.828137 5.859387 338.484375 3.515625 336.140613 1.171863 333.312516 0 330 0zM330 1.78125C332.593764 1.78125 334.859364 2.640615 336.796875 4.359375 336.640623 4.578126 336.421875 4.835937 336.140625 5.132814 335.859375 5.429688 335.273442 5.890623 334.382814 6.515625 333.492183 7.140627 332.500005 7.656249 331.40625 8.0625 330.249993 5.906238 328.984383 3.906258 327.609375 2.0625 328.390629 1.875 329.187495 1.78125 330 1.78125zM325.640625 2.71875C327.015633 4.593759 328.281243 6.578115 329.4375 8.671875 326.156235 9.546879 323.000016 9.968751 319.96875 9.9375 320.312502 8.343741 320.98437 6.91407 321.984375 5.648436 322.98438 4.382805 324.203118 3.406254 325.640625 2.71875zM319.734375 12C319.734375 11.90625 319.734375 11.8125 319.734375 11.71875 323.234391 11.781249 326.749983 11.296881 330.28125 10.265625 330.593751 10.828128 330.874998 11.406246 331.125 12 330.968748 12.031251 330.828126 12.062499 330.703125 12.09375 329.484369 12.500001 328.335942 13.062495 327.257814 13.78125 326.179683 14.500005 325.289067 15.249996 324.585936 16.03125 323.882808 16.812504 323.382813 17.406249 323.085936 17.8125 322.789062 18.218751 322.562502 18.578124 322.40625 18.890625 320.624991 16.921866 319.734375 14.625012 319.734375 12zM330 22.265625C327.656238 22.265625 325.562508 21.5468823 323.71875 20.109375 323.8125 19.921875 323.929686 19.710939 324.070314 19.476564 324.210939 19.242186 324.50781 18.843753 324.960936 18.28125 325.414065 17.718747 325.91406 17.195316 326.460936 16.710936 327.007815 16.226559 327.757809 15.695316 328.710936 15.117186 329.664066 14.539059 330.671871 14.062503 331.734375 13.6875 331.765626 13.6875 331.796874 13.6875 331.828125 13.6875 332.859381 16.375014 333.578124 18.968739 333.984375 21.46875 332.734368 22.0000026 331.406256 22.265625 330 22.265625zM335.71875 20.53125C335.343747 18.24999 334.687506 15.812514 333.75 13.21875 335.93751 12.843747 338.062491 12.984372 340.125 13.640625 339.656247 16.54689 338.187513 18.843741 335.71875 20.53125zM333.09375 11.578125C333.031251 11.390625 332.968749 11.218752 332.90625 11.0625 332.687499 10.562499 332.453127 10.062501 332.203125 9.5625 333.328131 9.093747 334.367184 8.53125 335.320314 7.875 336.273441 7.218747 336.898437 6.726564 337.195314 6.398436 337.492188 6.070311 337.734375 5.781252 337.921875 5.53125 339.453132 7.406259 340.234374 9.531237 340.265625 11.90625 337.828113 11.406249 335.437512 11.296875 333.09375 11.578125zM358.279795 10.7857104C358.279795 10.7857104 358.643044 10.6471503 359.369555 10.3700302 360.096063 10.0929072 360.459312 9.29525705 360.459312 7.97705399 360.459312 6.64387526 360.06985 5.64774808 359.290912 4.98864655 358.511973 4.32954501 357.553295 4 356.414849 4L349 4 349 18.8746367 356.414849 18.8746367C356.414849 18.8746367 356.650773 18.8596573 357.122631 18.8296982 357.594486 18.7997391 358.115019 18.6499457 358.684244 18.3803134 359.253465 18.1106811 359.773998 17.6800249 360.245854 17.088332 360.717712 16.4966393 360.953636 15.6315826 360.953636 14.4931364 360.953636 14.4931364 360.949891 14.2984039 360.942402 13.9089333 360.934912 13.5194655 360.852525 13.0962989 360.695239 12.6394219 360.537952 12.182545 360.275817 11.7593784 359.908817 11.3699106 359.541817 10.9804428 358.998816 10.7857104 358.279795 10.7857104zM352.280509 6.65137028L356.414849 6.65137028C356.414849 6.65137028 356.583366 6.71503193 356.920406 6.8423581 357.257446 6.96968427 357.425966 7.42281082 357.425966 8.20174926 357.425966 8.96570629 357.29864 9.45253454 357.043988 9.6622484 356.789335 9.87196227 356.497237 9.97681776 356.167689 9.97681776L352.280509 9.97681776 352.280509 6.65137028zM356.212625 16.2232664L352.280509 16.2232664 352.280509 12.2686802 356.414849 12.2686802C356.414849 12.2686802 356.665754 12.3510679 357.167569 12.5158433 357.669385 12.6806158 357.920287 13.2723024 357.920287 14.2909118 357.920287 15.1747057 357.710579 15.7177063 357.291148 15.9199309 356.87172 16.1221555 356.512218 16.2232664 356.212625 16.2232664zM366.99786 7.79730007C365.634721 7.79730007 364.578677 8.09314338 363.829698 8.68483576 363.08072 9.27652813 362.537719 9.92813177 362.200679 10.639661 361.863639 11.3511903 361.665162 12.0065357 361.605242 12.6057202 361.545325 13.2049019 361.515365 13.5044898 361.515365 13.5044898 361.515365 13.5044898 361.526602 13.8003303 361.54907 14.3920226 361.57154 14.983715 361.743802 15.6353187 362.065864 16.3468474 362.387922 17.0583766 362.923436 17.7099783 363.672412 18.3016709 364.421391 18.8933639 365.529863 19.189206 366.99786 19.189206 366.99786 19.189206 367.252509 19.1817164 367.761817 19.1667368 368.271121 19.1517572 368.832845 19.0319225 369.447008 18.807229 370.061171 18.5825354 370.61915 18.1968174 371.120966 17.6500633 371.622781 17.1033088 371.873686 16.2981706 371.873686 15.2346198L369.379602 15.2346198C369.379602 15.2346198 369.29347 15.5005032 369.121205 16.0322786 368.94894 16.5640525 368.271124 16.8299359 367.087737 16.8299359 367.087737 16.8299359 366.668317 16.7438047 365.829459 16.5715398 364.990604 16.3992745 364.571182 15.6240934 364.571182 14.2459733L371.963563 14.2459733C371.963563 14.2459733 371.974797 13.908939 371.997268 13.234859 372.019735 12.560776 371.903646 11.8192983 371.648994 11.0104028 371.394341 10.2015073 370.918747 9.46377419 370.222196 8.79718339 369.525648 8.13059259 368.450878 7.79730007 366.99786 7.79730007zM369.244784 12.2686802L364.548714 12.2686802C364.548714 12.2686802 364.691019 11.8867074 364.975631 11.1227475 365.26024 10.3587905 365.95678 9.97681776 367.065269 9.97681776 368.158777 9.97681776 368.795399 10.3587905 368.975153 11.1227475 369.154909 11.8867074 369.244784 12.2686802 369.244784 12.2686802zM369.828987 4.87630179L363.942043 4.87630179 363.942043 6.71877656 369.828987 6.71877656 369.828987 4.87630179zM390.042914 1C391.511495 1 392.9133 1.27654657 394.248376 1.82964594 395.583445 2.38275154 396.765923 3.17424517 397.795836 4.20415799 398.825755 5.25314385 399.617248 6.44515879 400.170348 7.78023396 400.723453 9.11530914 401 10.5075785 401 11.9570857 401 13.4638119 400.713917 14.8846909 400.141745 16.219766 399.569566 17.5548375 398.787609 18.7182416 397.795836 19.7100109 396.804069 20.7017801 395.640664 21.4837397 394.305588 22.0559146 392.97052 22.628089 391.549641 22.9141719 390.042914 22.9141719 389.127433 22.9141719 388.22627 22.8045068 387.339399 22.5851732 386.452534 22.3658396 385.608589 22.0368441 384.807542 21.5981773L384.807542 21.5981773 379 23.114432 380.544864 17.4499327C380.068051 16.6107446 379.705679 15.728654 379.457737 14.8036367 379.209795 13.8786256 379.085826 12.9297794 379.085826 11.9570857 379.085826 10.4503594 379.371909 9.02948048 379.944083 7.6944053 380.53533 6.35933012 381.326826 5.19593097 382.318596 4.20415799 383.310365 3.21239124 384.464232 2.4304279 385.780234 1.85825549 387.115309 1.28608309 388.536188 1 390.042914 1zM390.042914 2.85955876C388.803198 2.85955876 387.630262 3.09795925 386.524057 3.57477271 385.417852 4.05157993 384.449939 4.70003825 383.620286 5.5201539 382.790633 6.34026955 382.13741 7.30341428 381.660598 8.40961925 381.183786 9.51582422 380.945384 10.6983026 380.945384 11.9570857 380.945384 12.8153474 381.064585 13.6545236 381.302991 14.4746393 381.541397 15.2947549 381.889465 16.0671817 382.347204 16.7919384L382.347204 16.7919384 382.547464 17.1352388 381.631989 20.511051 385.065019 19.5955764 385.408322 19.7958364C386.114006 20.2154314 386.857817 20.5348904 387.639793 20.7542241 388.421762 20.9735578 389.222799 21.0832228 390.042914 21.0832228 391.301697 21.0832228 392.48417 20.8448204 393.590375 20.3680082 394.696579 19.891196 395.659724 19.2379731 396.479846 18.4083203 397.299962 17.5786676 397.948414 16.6107508 398.425227 15.5045521 398.921114 14.3983471 399.169051 13.2158687 399.169051 11.9570857 399.169051 10.7364487 398.940181 9.57304333 398.482446 8.46683836 398.024706 7.36063339 397.357175 6.37841562 396.479846 5.5201539 395.621584 4.66189217 394.63936 4.00390357 393.533162 3.54616315 392.426957 3.08842273 391.263551 2.85955876 390.042914 2.85955876zM386.695709 6.89336892C386.772001 6.91244196 386.86736 6.93150876 386.981792 6.9505818 387.09623 6.96965483 387.201125 7.11269638 387.296491 7.37971266 387.410923 7.64672894 387.573037 8.03293924 387.782834 8.53836225 387.992631 9.04377902 388.1166 9.33463037 388.154746 9.41092252 388.192892 9.46814163 388.216733 9.53965928 388.22627 9.62548795 388.235806 9.71131038 388.221502 9.8019073 388.183356 9.89726625 388.126136 9.9735584 388.083222 10.0450761 388.054619 10.1118317 388.026009 10.1785873 387.973558 10.2596415 387.897266 10.3550067 387.840053 10.4312926 387.773298 10.512353 387.697006 10.5981754 387.62072 10.6840041 387.553964 10.7555217 387.496751 10.8127409 387.420459 10.889033 387.36324 10.9700872 387.3251 11.0559158 387.286954 11.1417383 387.306027 11.2514082 387.382313 11.3849133 387.458605 11.5184183 387.630256 11.7758981 387.897266 12.1573463 388.164283 12.5387946 388.498048 12.9107001 388.89857 13.2730816 389.413529 13.749895 389.876025 14.0788862 390.286083 14.2600738 390.696141 14.4412677 390.967925 14.5700044 391.10143 14.6462904 391.234936 14.7035095 391.344605 14.7273508 391.430428 14.7178143 391.516257 14.7082777 391.606847 14.6558269 391.702212 14.5604679 391.778498 14.4841758 391.916772 14.3220612 392.117032 14.074118 392.317293 13.8261809 392.465103 13.6354568 392.560468 13.5019456 392.655827 13.3684405 392.751192 13.3016911 392.846551 13.3016911 392.941916 13.3016911 393.046812 13.3207579 393.16125 13.358904 393.294755 13.3970501 393.609448 13.5400916 394.105334 13.7880349 394.601214 14.0359781 394.915907 14.1885562 395.049412 14.2457691 395.182923 14.3220612 395.292587 14.3792803 395.378416 14.4174264 395.464238 14.4555662 395.526225 14.5032488 395.564371 14.5604679 395.602511 14.6176808 395.616816 14.7702589 395.60728 15.0182021 395.597743 15.2661454 395.535762 15.5522284 395.421324 15.8764638 395.306892 16.200693 395.035113 16.4867761 394.605983 16.7347193 394.176852 16.9826607 393.828781 17.1257022 393.561765 17.1638471 393.332901 17.2019919 393.070653 17.2210643 392.775033 17.2210643 392.479408 17.2210643 392.169483 17.1733836 391.845254 17.0780215 391.635457 17.0017312 391.401818 16.9206746 391.144345 16.8348465 390.886865 16.7490241 390.596014 16.6298239 390.271778 16.4772396 388.898563 15.8859941 387.792377 15.0754275 386.953188 14.0455146 386.113993 13.0155956 385.665802 12.4529659 385.608583 12.357607 385.532291 12.2622418 385.327268 11.9332506 384.993498 11.3706085 384.659729 10.8079726 384.492848 10.1928921 384.492848 9.5253545 384.492848 8.85781691 384.621585 8.34286985 384.879064 7.98049462 385.136542 7.61811315 385.322494 7.37017614 385.436932 7.23667111 385.570437 7.10315986 385.703942 7.01256917 385.837453 6.96488657 385.970958 6.91720398 386.08539 6.89336892 386.180755 6.89336892L386.180755 6.89336892zM415.964844 17.7148417C415.964844 18.7174529 416.072264 19.4908825 416.287109 20.0351564 416.501954 20.5794299 416.881508 21.080727 417.425781 21.5390624 417.970053 21.9973982 418.628901 22.3554674 419.402342 22.6132812 420.175787 22.871095 420.963537 23 421.765624 23 422.653651 23 423.470048 22.9140634 424.214842 22.7421875 425.102869 22.5416657 425.947913 22.2408872 426.75 21.8398436L426.75 18.53125C425.861977 19.1328157 424.902351 19.4335936 423.871094 19.4335936 423.240883 19.4335936 422.682294 19.2760431 422.195312 18.9609376 421.794271 18.7317697 421.522135 18.4166689 421.378906 18.0156238 421.29297 17.8151009 421.25 17.0273511 421.25 15.6523417L421.25 10.625 426.75 10.625 426.75 6.5 421.25 6.5 421.25 1 417.683594 1C417.56901 2.14583957 417.325523 3.08398043 416.953125 3.81445532 416.580727 4.54492553 416.07943 5.16796553 415.449219 5.68359404 414.933591 6.14192894 414.117193 6.54296553 413 6.88671787L413 10.625 415.964844 10.625 415.964844 17.7148417z"/>
    </g>
    <g transform="translate(15 33)">
      <path fill="#23252B" d="M158.05088 4.30137122C152.080856 3.89954293 146.713657 3.89954293 141.94912 4.30137122 141.202867 4.38747689 140.571432 4.8036497 140.054795 5.54990343 139.538159 6.29615716 139.236792 7.07109992 139.150686 7.87475651 138.949771 10.5153432 138.949771 13.1558914 139.150686 15.7964781 139.236792 16.6001347 139.538159 17.3750783 140.054795 18.1213312 140.571432 18.8675841 141.202867 19.2981081 141.94912 19.4129162 147.74693 19.7860425 153.114129 19.7860425 158.05088 19.4129162 158.797134 19.2694061 159.428568 18.8245312 159.945205 18.0782783 160.461842 17.3320254 160.763209 16.5714319 160.849314 15.7964781 161.050229 13.0984858 161.050229 10.3861847 160.849314 7.65949233 160.763209 6.82713293 160.483367 6.0665402 160.009783 5.37769209 159.536202 4.68884398 158.88324 4.33007403 158.05088 4.30137122zM147.244619 15.7534253L147.244619 7.83170367 154.133072 11.7925645 147.244619 15.7534253zM220.741817 7.35499139C220.645594 9.47253957 219.165134 12.3733982 216.305155 16.0547371 213.348637 19.9005367 210.846195 21.823122 208.798141 21.823122 207.531197 21.823122 206.458587 20.6524015 205.581569 18.3097027 204.996366 16.1629101 204.410534 14.0173753 203.825645 11.8699538 203.175664 9.52851277 202.477571 8.35621999 201.730423 8.35621999 201.568164 8.35621999 200.99774 8.69929173 200.022612 9.38166172L199 8.06251788C200.07261 7.1200926 201.132013 6.17578058 202.173807 5.23052518 203.606155 3.99408333 204.680337 3.34253005 205.397612 3.27649424 207.09033 3.11392038 208.132437 4.27237709 208.523621 6.74934872 208.94625 9.4234844 209.23838 11.0866433 209.402526 11.7372533 209.890248 13.9554274 210.427653 15.0635711 211.013171 15.0635711 211.468818 15.0635711 212.153704 14.3431519 213.064998 12.9054581 213.975663 11.466192 214.463699 10.3706265 214.52942 9.62001953 214.659291 8.37760302 214.17094 7.75529416 213.064998 7.75529416 212.543629 7.75529416 212.006224 7.87415861 211.454667 8.11220197 212.523504 4.61010306 214.566212 2.9076371 217.581532 3.0038607 219.817316 3.06958205 220.87043 4.51985413 220.741817 7.35499139"/>
      <use fill="#23252B" xlink:href="#b"/>
      <path fill="#23252B" d="M248.288848 17.8654476C246.987001 18.3140994 245.57494 18.2616075 244.313262 17.7182567 243.052442 17.1754401 242.09439 16.2074795 241.615364 14.9922863L241.614792 14.9916184C241.133479 13.7746888 241.1878 12.4558476 241.76875 11.2780531 242.349556 10.1003922 243.385944 9.20415718 244.688506 8.75510468 247.376683 7.82841633 250.370773 9.11707145 251.363133 11.6281324 252.356208 14.1378577 250.976739 16.9362215 248.288848 17.8654476M233.514809 18.1409965C230.649517 18.1409965 228.318429 15.9641203 228.318429 13.2877033 228.318429 10.6106185 230.649517 8.4325402 233.514809 8.4325402 236.379673 8.4325402 238.710617 10.6106185 238.710617 13.2877033 238.710617 15.9641203 236.379673 18.1409965 233.514809 18.1409965M246.277254 7.23097082C245.595953 7.25100588 244.907077 7.37028127 244.23321 7.60255441 242.601434 8.16580676 241.301874 9.288438 240.574973 10.7644877 240.255765 11.412288 240.065499 12.0936137 240.000885 12.7832205 239.728136 9.69474904 236.977061 7.25447862 233.614445 7.20692874 235.483089 6.4570832 237.642208 6.06038899 239.972724 6.06038899 242.3071 6.06038899 244.415614 6.45320975 246.277254 7.23097082M252.596078 11.2027213C252.375792 10.6448116 252.075168 10.1361882 251.713218 9.6815259 252.021419 8.46633267 252.993765 7.25354365 252.993765 7.25354365L248.667237 7.25087231C246.228508 5.77535686 243.258576 5 239.972724 5 236.569939 5 233.493938 5.79792969 231.070648 7.27918853L227 7.2817263C227 7.2817263 227.958481 8.47701804 228.274114 9.68339584 227.476739 10.6928958 227.004146 11.9394773 227.004146 13.2877033 227.004146 16.6414389 229.924617 19.3694128 233.514809 19.3694128 235.565858 19.3694128 237.397192 18.4779862 238.591397 17.0891558L239.975011 19.0257447 241.372063 17.0732613C242.000043 17.8201683 242.812 18.4237579 243.762761 18.8332746 245.342789 19.5144667 247.112082 19.5800481 248.744287 19.0174636 252.112764 17.853293 253.840459 14.3474245 252.596078 11.2027213M233.430754 12.2232806C232.832079 12.2232806 232.348336 12.6747373 232.348336 13.2334484 232.348336 13.7908237 232.832079 14.2449518 233.430754 14.2449518 234.027428 14.2449518 234.512029 13.7908237 234.512029 13.2334484 234.512029 12.6747373 234.027428 12.2232806 233.430754 12.2232806M246.475297 12.2232806C245.876336 12.2232806 245.394165 12.6747373 245.394165 13.2334484 245.394165 13.7908237 245.876336 14.2449518 246.475297 14.2449518 247.072256 14.2449518 247.555428 13.7908237 247.555428 13.2334484 247.555428 12.6747373 247.072256 12.2232806 246.475297 12.2232806M233.434028 15.2033623C232.270271 15.2033623 231.323083 14.3199497 231.323083 13.2335151 231.323083 12.147882 232.270271 11.2648701 233.434028 11.2648701 234.593639 11.2648701 235.537682 12.147882 235.537682 13.2335151 235.537682 14.3199497 234.593639 15.2033623 233.434028 15.2033623M233.434028 10.2303931C231.659445 10.2303931 230.215935 11.5772834 230.215935 13.2335151 230.215935 14.8896133 231.659445 16.237305 233.434028 16.237305 235.204465 16.237305 236.644974 14.8896133 236.644974 13.2335151 236.644974 11.5772834 235.204465 10.2303931 233.434028 10.2303931M246.475297 15.2033623C245.312397 15.2033623 244.366639 14.3199497 244.366639 13.2335151 244.366639 12.147882 245.312397 11.2648701 246.475297 11.2648701 247.636767 11.2648701 248.581381 12.147882 248.581381 13.2335151 248.581381 14.3199497 247.636767 15.2033623 246.475297 15.2033623M246.475297 10.2303931C244.702572 10.2303931 243.259348 11.5772834 243.259348 13.2335151 243.259348 14.8896133 244.702572 16.237305 246.475297 16.237305 248.246735 16.237305 249.688673 14.8896133 249.688673 13.2335151 249.688673 11.5772834 248.246735 10.2303931 246.475297 10.2303931M276.530343 10.6103809C276.569043 10.6103809 276.67546 10.5716814 276.849606 10.494286 277.023749 10.4168905 277.149518 10.378191 277.226913 10.378191 277.768692 10.378191 278.155673 10.4362385 278.387863 10.5523334 278.697452 10.707128 278.861917 10.9102924 278.881265 11.161834 278.900616 11.4133719 278.774847 11.6358842 278.503958 11.8293783 278.271768 11.9841729 277.807392 12.1970112 277.110818 12.4679007 276.569039 12.6613949 276.24978 12.8742332 276.153036 13.1064232 276.056289 13.3386131 276.143358 13.706246 276.414248 14.2093255 277.381711 16.0668565 278.73614 17.2084435 280.477573 17.6341276 280.825858 17.7502226 281 17.8663176 281 17.9824126 281 18.3306976 280.883905 18.5822355 280.651715 18.73703 280.032541 19.0079196 279.355326 19.2401073 278.620053 19.4335999 278.233068 19.5496957 278.000878 19.7625344 277.923483 20.0721224 277.846087 20.4978061 277.739666 20.7590172 277.60422 20.8557635 277.468777 20.9525098 277.188217 20.9621842 276.762533 20.8847873 275.446785 20.6138977 274.227799 20.8847832 273.105541 21.6974522 271.983283 22.5101212 270.938439 22.9067751 269.970976 22.8874258 269.003513 22.8680765 267.958669 22.4520737 266.836412 21.6394047 265.752853 20.8654341 264.572567 20.6138977 263.295515 20.8847873 262.86983 20.9621842 262.589271 20.9525098 262.453826 20.8557635 262.318381 20.7590172 262.192613 20.4978061 262.076517 20.0721224 261.99912 19.6851371 261.786282 19.4722984 261.437995 19.4335999 260.702723 19.3175042 260.044858 19.1046666 259.46438 18.7950775 259.232189 18.6789825 259.077397 18.4274446 259 18.0404601 259 17.846966 259.212839 17.6921751 259.638522 17.5760801 261.457353 17.0730006 262.850479 15.7959669 263.817942 13.7449456 263.972737 13.3579611 263.856642 13.0290277 263.469657 12.7581382 263.353562 12.7194386 263.17942 12.6613911 262.94723 12.5839957 262.715038 12.5066003 262.540898 12.4292012 262.424802 12.3518057 262.115214 12.1970112 261.902375 12.0809162 261.78628 12.0035208 261.2445 11.6939317 261.07036 11.3263025 261.263852 10.9006184 261.496043 10.3201398 261.94107 10.146001 262.598945 10.378191 262.985929 10.5329855 263.276163 10.6297289 263.469657 10.6684284 263.856642 10.707128 264.050132 10.5329855 264.050132 10.146001 264.011432 9.1011424 264.011432 8.05629495 264.050132 7.01143635 264.204926 4.80562045 265.365865 3.29640049 267.532982 2.48373186 268.964828 1.90325321 270.445023 1.84520572 271.973617 2.30958938 273.502207 2.77397305 274.653472 3.68337387 275.427441 5.03782157 275.775726 5.69569564 275.988568 6.74053938 276.065963 8.17238622 276.065963 8.40457619 276.046615 8.74318347 276.007916 9.18821921 275.969216 9.63325123 275.949868 9.97185851 275.949868 10.2040485 275.911169 10.4362385 275.949868 10.5813553 276.065963 10.6394028 276.182058 10.697454 276.336849 10.6877764 276.530343 10.6103809zM119.9978 1C113.351362 1 110 5.48031068 110 9.21658252 110 11.4788447 110.91105 13.491233 112.864725 14.2415243 113.185112 14.3645631 113.47225 14.245767 113.565112 13.9121553 113.629712 13.6812621 113.782662 13.0988932 113.850825 12.8566117 113.944637 12.5267961 113.9083 12.4111262 113.649662 12.1235146 113.086312 11.4987184 112.726262 10.6899223 112.726262 9.54416505 112.726262 6.2203301 115.3713 3.24462136 119.613762 3.24462136 123.370537 3.24462136 125.43465 5.40282524 125.43465 8.28519417 125.43465 12.0777379 123.6496 15.2783107 120.999337 15.2783107 119.535862 15.2783107 118.440512 14.1403689 118.791537 12.7449612 119.21215 11.078466 120.026537 9.2802233 120.026537 8.07752427 120.026537 7.00099029 119.411887 6.10287379 118.139837 6.10287379 116.643825 6.10287379 115.442075 7.55812621 115.442075 9.50754369 115.442075 10.7488738 115.8881 11.5887087 115.8881 11.5887087 115.8881 11.5887087 114.357175 17.6877282 114.0888 18.7557767 113.554187 20.8829417 114.008525 23.4906505 114.047 23.7541456 114.069325 23.910233 114.282837 23.947301 114.379262 23.8293981 114.51725 23.6599126 116.299212 21.591699 116.904837 19.5252718 117.076312 18.94 117.889037 15.9098058 117.889037 15.9098058 118.374962 16.7815728 119.79545 17.5492816 121.306187 17.5492816 125.80325 17.5492816 128.854175 13.6946602 128.854175 8.53506796 128.854175 4.6333301 125.33965 1 119.9978 1M84.6442224 8.81845965L84.6442224 21.7135264 80.0252903 21.7135264 80.0252903 8.81845965 84.6442224 8.81845965zM95.4134155 8.53015781C98.3480123 8.53015781 99.955557 10.5744113 99.955557 14.1127148L99.955557 21.71355 95.3368548 21.71355 95.3368548 14.6893657C95.3368548 13.1955518 94.8519704 12.3305754 93.7290802 12.3305754 92.836102 12.3305754 92.4277783 12.9596491 92.2236164 13.4574297 92.1215355 13.6933323 92.0960152 14.060292 92.0960152 14.4010403L92.0960152 21.71355 87.4770831 21.71355 87.4770831 13.2217632C87.4770831 11.4918104 87.4260427 10.0242079 87.3752321 8.81848326L91.3559285 8.81848326 91.5600904 10.4698018 91.6366511 10.4698018C92.0960152 9.78806911 93.3209864 8.53015781 95.4134155 8.53015781zM82.3476314 3C83.7765345 3 84.6697427 3.94337444 84.6952629 5.2539447 84.6952629 6.48588074 83.7765345 7.48144185 82.3476314 7.48144185L82.3221112 7.48144185C80.8932081 7.48144185 80 6.48588074 80 5.2539447 80 3.94337444 80.9184984 3 82.3476314 3zM69.7679712 16.6182793C69.7146741 17.7723213 69.519125 18.3991968 69.3546817 18.8161784 69.1371309 19.3684124 68.8770943 19.7629455 68.4571663 20.176934 68.0372384 20.5911095 67.6374154 20.8475841 67.0773219 21.0623418 66.6543592 21.2243454 66.0189669 21.4172158 64.8490864 21.4699698 63.5838022 21.5268395 63.2044636 21.538812 60 21.538812 56.7955364 21.538812 56.4161978 21.5268395 55.1511032 21.4699698 53.9810331 21.4172158 53.3456408 21.2243454 52.9228678 21.0623418 52.3625846 20.8475841 51.9627616 20.5911095 51.5430233 20.176934 51.1230954 19.7629455 50.8630587 19.3684124 50.6453183 18.8161784 50.480875 18.3991968 50.2855156 17.7723213 50.2320288 16.6182793 50.1743693 15.3703276 50.1620408 14.9959982 50.1620408 11.8358052 50.1620408 8.675425 50.1743693 8.30109561 50.2320288 7.05314391 50.2855156 5.89910193 50.480875 5.27260062 50.6453183 4.85543193 50.8630587 4.30282373 51.1230954 3.90885187 51.5430233 3.49448925 51.9627616 3.0803137 52.3625846 2.82383914 52.9228678 2.60908145 53.3456408 2.44707783 53.9810331 2.25420747 55.1511032 2.20164047 56.4163874 2.14477084 56.7959158 2.13242414 60 2.13242414 63.2042739 2.13242414 63.5836126 2.14477084 64.8490864 2.20164047 66.0189669 2.25420747 66.6543592 2.44707783 67.0773219 2.60908145 67.6374154 2.82383914 68.0372384 3.0803137 68.4571663 3.49448925 68.8770943 3.90885187 69.1371309 4.30282373 69.3546817 4.85543193 69.519125 5.27260062 69.7146741 5.89910193 69.7679712 7.05314391 69.8256307 8.30109561 69.8379592 8.675425 69.8379592 11.8358052 69.8379592 14.9959982 69.8256307 15.3703276 69.7679712 16.6182793M71.9279256 6.95605398C71.8696972 5.69612972 71.666751 4.83597653 71.3701081 4.08282804 71.0634128 3.30461202 70.653158 2.64462497 69.9859012 1.98650864 69.3188342 1.32876644 68.6496807.923757383 67.8604666.62145039 67.0972371.328871097 66.2249478.128704957 64.9475248.0712741116 63.6676361.0136561946 63.2590883-9.9475983e-14 60-9.9475983e-14 56.7409117-9.9475983e-14 56.3323639.0136561946 55.0524752.0712741116 53.7750522.128704957 52.9029525.328871097 52.1395334.62145039 51.3503193.923757383 50.6811658 1.32876644 50.0140988 1.98650864 49.346842 2.64462497 48.9365872 3.30461202 48.6300816 4.08282804 48.333249 4.83597653 48.1304925 5.69612972 48.072264 6.95605398 48.0138459 8.21841016 48 8.62136143 48 11.8358052 48 15.0502489 48.0138459 15.4530131 48.072264 16.7155563 48.1304925 17.9752935 48.333249 18.8358209 48.6300816 19.5885952 48.9365872 20.3668112 49.346842 21.0269853 50.0140988 21.6849146 50.6811658 22.3430309 51.3503193 22.7476659 52.1395334 23.0501599 52.9029525 23.3425521 53.7750522 23.5427183 55.0524752 23.6001491 56.3323639 23.657767 56.7409117 23.6714232 60 23.6714232 63.2590883 23.6714232 63.6676361 23.657767 64.9475248 23.6001491 66.2249478 23.5427183 67.0972371 23.3425521 67.8604666 23.0501599 68.6496807 22.7476659 69.3188342 22.3430309 69.9859012 21.6849146 70.653158 21.0269853 71.0634128 20.3668112 71.3701081 19.5885952 71.666751 18.8358209 71.8696972 17.9752935 71.9279256 16.7155563 71.9863438 15.4530131 72 15.0502489 72 11.8358052 72 8.62136143 71.9863438 8.21841016 71.9279256 6.95605398M60 15.7810237C57.7909212 15.7810237 56.0000632 14.0146978 56.0000632 11.8356929 56.0000632 9.65687513 57.7909212 7.89036217 60 7.89036217 62.2090788 7.89036217 64.0001264 9.65687513 64.0001264 11.8356929 64.0001264 14.0146978 62.2090788 15.7810237 60 15.7810237M60 5.75793803C56.596763 5.75793803 53.8378327 8.47907511 53.8378327 11.8356929 53.8378327 15.1924978 56.596763 17.9134478 60 17.9134478 63.403237 17.9134478 66.1621673 15.1924978 66.1621673 11.8356929 66.1621673 8.47907511 63.403237 5.75793803 60 5.75793803M66.4056838 6.93807644C65.6104002 6.93807644 64.9657141 6.30222157 64.9657141 5.5178322 64.9657141 4.73344283 65.6104002 4.09740089 66.4056838 4.09740089 67.2009673 4.09740089 67.8456534 4.73344283 67.8456534 5.5178322 67.8456534 6.30222157 67.2009673 6.93807644 66.4056838 6.93807644M175.589674 4C171.394014 4 168 7.39344909 168 11.5905207 168 15.7878745 171.393449 19.1813236 175.589674 19.1813236 179.97135 19.1813236 182.87619 16.1026055 182.87619 11.7643989 182.87619 11.2647812 182.87619 10.8848458 182.75679 10.5046283L175.589674 10.5046283 175.589674 13.1108265 179.895419 13.1108265C179.721541 14.2240991 178.592179 16.3851577 175.589674 16.3851577 172.999565 16.3851577 170.884234 14.2348254 170.884234 11.5905207 170.884234 8.94621597 172.999565 6.79616592 175.589674 6.79616592 177.06651 6.79616592 178.054737 7.42591013 178.613914 7.96899748L180.677307 5.9871803C179.352332 4.74914439 177.642059 4 175.589674 4L175.589674 4zM187.518683 8.33820655L187.518683 10.5046283 185.346899 10.5046283 185.346899 12.6764131 187.518683 12.6764131 187.518683 14.8431171 189.685105 14.8431171 189.685105 12.6764131 191.85689 12.6764131 191.85689 10.5046283 189.685105 10.5046283 189.685105 8.33820655 187.518683 8.33820655zM304.152866 13.8726147C303.67728 13.8726147 303.273886 14.1019092 302.942674 14.5605112 302.611463 15.0191132 302.445862 15.5711242 302.445862 16.2165638 302.445862 16.8620001 302.611463 17.4182571 302.942674 17.8853511 303.273886 18.3524451 303.67728 18.5859889 304.152866 18.5859889 304.611468 18.5859889 305.006367 18.3524451 305.337579 17.8853511 305.668791 17.4182571 305.834395 16.8620001 305.834395 16.2165638 305.834395 15.5711242 305.668791 15.0191132 305.337579 14.5605112 305.006367 14.1019092 304.611468 13.8726147 304.152866 13.8726147zM310.063694 7.75796504C310.148621 7.52016876 310.157113 6.8237868 310.089174 5.66878981 310.021231 4.51379608 309.732486 3.29087918 309.222928 2 309.222928 2 308.679409 2.14437422 307.592355 2.43312265 306.505301 2.72187108 305.070073 3.47770375 303.286624 4.7006402 302.912949 4.59872611 302.428877 4.52229462 301.834397 4.47133921 301.239912 4.4203838 300.628454 4.39490772 300 4.39490772 299.371546 4.39490772 298.760088 4.4203838 298.165607 4.47133921 297.571123 4.52229462 297.087051 4.59872611 296.713376 4.7006402 294.929927 3.47770375 293.494696 2.72187108 292.407642 2.43312265 291.320591 2.14437422 290.77707 2 290.77707 2 290.267513 3.29087918 289.978769 4.51379608 289.910828 5.66878981 289.842887 6.8237868 289.859872 7.52016876 289.961783 7.75796504 289.350316 8.42038869 288.87049 9.15923404 288.522293 9.97452392 288.174096 10.7898138 288 11.7409728 288 12.8280271 288 15.1719892 288.416132 16.9851345 289.248408 18.2675184 290.080684 19.5499019 291.044581 20.4925676 292.140127 21.0955429 293.235673 21.6985184 294.318465 22.0552028 295.388535 22.1656067 296.458605 22.2760107 297.239914 22.3312118 297.732484 22.3312118 297.953293 22.3312118 298.27176 22.3354581 298.687899 22.3439507 299.104038 22.3524433 299.5414 22.3566895 300 22.3566895 300.475588 22.3566895 300.917196 22.3524433 301.324842 22.3439507 301.732486 22.3354581 302.046707 22.3312118 302.267516 22.3312118 302.760086 22.3312118 303.541395 22.2760107 304.611465 22.1656067 305.681535 22.0552028 306.764327 21.6985184 307.859873 21.0955429 308.95542 20.4925676 309.919317 19.5499019 310.751591 18.2675184 311.583868 16.9851345 312 15.1719892 312 12.8280271 312 11.7409728 311.825904 10.7898138 311.477708 9.97452392 311.129509 9.15923404 310.658178 8.42038869 310.063694 7.75796504zM300.025478 21.184715L299.974522 21.184715C298.734602 21.184715 297.58387 21.1295139 296.522292 21.0191101 295.460717 20.9087059 294.535034 20.6666701 293.745224 20.2929953 292.95541 19.9193204 292.335459 19.3800477 291.88535 18.6751617 291.435243 17.9702746 291.210191 17.0233616 291.210191 15.8343965 291.210191 15.2568997 291.316348 14.7048887 291.528662 14.1783472 291.740979 13.6518025 292.093417 13.167731 292.585987 12.7261163 293.384293 11.9957532 294.428868 11.698516 295.719747 11.8343982 297.010623 11.9702771 298.428866 12.0382198 299.974522 12.0382198 299.974522 12.0382198 299.978768 12.0382198 299.98726 12.0382198 299.995752 12.0382198 300.000002 12.0382198 300.000002 12.0382198 300.000002 12.0382198 300.004248 12.0382198 300.01274 12.0382198 300.021232 12.0382198 300.025478 12.0382198 300.025478 12.0382198 301.571134 12.0382198 302.989377 11.9702771 304.280256 11.8343982 305.571132 11.698516 306.615707 11.9957532 307.414013 12.7261163 307.906583 13.167731 308.259021 13.6518025 308.471338 14.1783472 308.683652 14.7048887 308.789809 15.2568997 308.789809 15.8343965 308.789809 17.0233616 308.564757 17.9702746 308.11465 18.6751617 307.664541 19.3800477 307.04459 19.9193204 306.254776 20.2929953 305.464966 20.6666701 304.539283 20.9087059 303.477708 21.0191101 302.41613 21.1295139 301.265398 21.184715 300.025478 21.184715zM295.847134 13.8726147C295.388532 13.8726147 294.993633 14.1019092 294.662421 14.5605112 294.331209 15.0191132 294.165605 15.5711242 294.165605 16.2165638 294.165605 16.8620001 294.331209 17.4182571 294.662421 17.8853511 294.993633 18.3524451 295.388532 18.5859889 295.847134 18.5859889 296.32272 18.5859889 296.726114 18.3524451 297.057326 17.8853511 297.388537 17.4182571 297.554142 16.8620001 297.554142 16.2165638 297.554142 15.5711242 297.388537 15.0191132 297.057326 14.5605112 296.726114 14.1019092 296.32272 13.8726147 295.847134 13.8726147zM10.273802 1L10.273802 4.87418959 7.95586432 4.87418959C7.95586432 4.87418959 6.83181645 4.63223698 6.83181645 5.99846422L6.83181645 8.12592379 10.2391078 8.12592379 9.8581515 11.9654191 6.77988848 11.9654191 6.77988848 23 2.31771096 23 2.31771096 12.0348076 5.06261699e-14 12.0348076 5.06261699e-14 8.16039126 2.17916078 8.16039126 2.17916078 5.98123048C2.17916078 4.52838104 2.38687267 1 6.4685474 1L10.273802 1zM330 0C326.687484 0 323.859387 1.171863 321.515625 3.515625 319.171863 5.859387 318 8.687484 318 12 318 15.312516 319.171863 18.140613 321.515625 20.484375 323.859387 22.8281367 326.687484 24 330 24 333.312516 24 336.140613 22.8281367 338.484375 20.484375 340.828137 18.140613 342 15.312516 342 12 342 8.687484 340.828137 5.859387 338.484375 3.515625 336.140613 1.171863 333.312516 0 330 0zM330 1.78125C332.593764 1.78125 334.859364 2.640615 336.796875 4.359375 336.640623 4.578126 336.421875 4.835937 336.140625 5.132814 335.859375 5.429688 335.273442 5.890623 334.382814 6.515625 333.492183 7.140627 332.500005 7.656249 331.40625 8.0625 330.249993 5.906238 328.984383 3.906258 327.609375 2.0625 328.390629 1.875 329.187495 1.78125 330 1.78125zM325.640625 2.71875C327.015633 4.593759 328.281243 6.578115 329.4375 8.671875 326.156235 9.546879 323.000016 9.968751 319.96875 9.9375 320.312502 8.343741 320.98437 6.91407 321.984375 5.648436 322.98438 4.382805 324.203118 3.406254 325.640625 2.71875zM319.734375 12C319.734375 11.90625 319.734375 11.8125 319.734375 11.71875 323.234391 11.781249 326.749983 11.296881 330.28125 10.265625 330.593751 10.828128 330.874998 11.406246 331.125 12 330.968748 12.031251 330.828126 12.062499 330.703125 12.09375 329.484369 12.500001 328.335942 13.062495 327.257814 13.78125 326.179683 14.500005 325.289067 15.249996 324.585936 16.03125 323.882808 16.812504 323.382813 17.406249 323.085936 17.8125 322.789062 18.218751 322.562502 18.578124 322.40625 18.890625 320.624991 16.921866 319.734375 14.625012 319.734375 12zM330 22.265625C327.656238 22.265625 325.562508 21.5468823 323.71875 20.109375 323.8125 19.921875 323.929686 19.710939 324.070314 19.476564 324.210939 19.242186 324.50781 18.843753 324.960936 18.28125 325.414065 17.718747 325.91406 17.195316 326.460936 16.710936 327.007815 16.226559 327.757809 15.695316 328.710936 15.117186 329.664066 14.539059 330.671871 14.062503 331.734375 13.6875 331.765626 13.6875 331.796874 13.6875 331.828125 13.6875 332.859381 16.375014 333.578124 18.968739 333.984375 21.46875 332.734368 22.0000026 331.406256 22.265625 330 22.265625zM335.71875 20.53125C335.343747 18.24999 334.687506 15.812514 333.75 13.21875 335.93751 12.843747 338.062491 12.984372 340.125 13.640625 339.656247 16.54689 338.187513 18.843741 335.71875 20.53125zM333.09375 11.578125C333.031251 11.390625 332.968749 11.218752 332.90625 11.0625 332.687499 10.562499 332.453127 10.062501 332.203125 9.5625 333.328131 9.093747 334.367184 8.53125 335.320314 7.875 336.273441 7.218747 336.898437 6.726564 337.195314 6.398436 337.492188 6.070311 337.734375 5.781252 337.921875 5.53125 339.453132 7.406259 340.234374 9.531237 340.265625 11.90625 337.828113 11.406249 335.437512 11.296875 333.09375 11.578125zM358.279795 10.7857104C358.279795 10.7857104 358.643044 10.6471503 359.369555 10.3700302 360.096063 10.0929072 360.459312 9.29525705 360.459312 7.97705399 360.459312 6.64387526 360.06985 5.64774808 359.290912 4.98864655 358.511973 4.32954501 357.553295 4 356.414849 4L349 4 349 18.8746367 356.414849 18.8746367C356.414849 18.8746367 356.650773 18.8596573 357.122631 18.8296982 357.594486 18.7997391 358.115019 18.6499457 358.684244 18.3803134 359.253465 18.1106811 359.773998 17.6800249 360.245854 17.088332 360.717712 16.4966393 360.953636 15.6315826 360.953636 14.4931364 360.953636 14.4931364 360.949891 14.2984039 360.942402 13.9089333 360.934912 13.5194655 360.852525 13.0962989 360.695239 12.6394219 360.537952 12.182545 360.275817 11.7593784 359.908817 11.3699106 359.541817 10.9804428 358.998816 10.7857104 358.279795 10.7857104zM352.280509 6.65137028L356.414849 6.65137028C356.414849 6.65137028 356.583366 6.71503193 356.920406 6.8423581 357.257446 6.96968427 357.425966 7.42281082 357.425966 8.20174926 357.425966 8.96570629 357.29864 9.45253454 357.043988 9.6622484 356.789335 9.87196227 356.497237 9.97681776 356.167689 9.97681776L352.280509 9.97681776 352.280509 6.65137028zM356.212625 16.2232664L352.280509 16.2232664 352.280509 12.2686802 356.414849 12.2686802C356.414849 12.2686802 356.665754 12.3510679 357.167569 12.5158433 357.669385 12.6806158 357.920287 13.2723024 357.920287 14.2909118 357.920287 15.1747057 357.710579 15.7177063 357.291148 15.9199309 356.87172 16.1221555 356.512218 16.2232664 356.212625 16.2232664zM366.99786 7.79730007C365.634721 7.79730007 364.578677 8.09314338 363.829698 8.68483576 363.08072 9.27652813 362.537719 9.92813177 362.200679 10.639661 361.863639 11.3511903 361.665162 12.0065357 361.605242 12.6057202 361.545325 13.2049019 361.515365 13.5044898 361.515365 13.5044898 361.515365 13.5044898 361.526602 13.8003303 361.54907 14.3920226 361.57154 14.983715 361.743802 15.6353187 362.065864 16.3468474 362.387922 17.0583766 362.923436 17.7099783 363.672412 18.3016709 364.421391 18.8933639 365.529863 19.189206 366.99786 19.189206 366.99786 19.189206 367.252509 19.1817164 367.761817 19.1667368 368.271121 19.1517572 368.832845 19.0319225 369.447008 18.807229 370.061171 18.5825354 370.61915 18.1968174 371.120966 17.6500633 371.622781 17.1033088 371.873686 16.2981706 371.873686 15.2346198L369.379602 15.2346198C369.379602 15.2346198 369.29347 15.5005032 369.121205 16.0322786 368.94894 16.5640525 368.271124 16.8299359 367.087737 16.8299359 367.087737 16.8299359 366.668317 16.7438047 365.829459 16.5715398 364.990604 16.3992745 364.571182 15.6240934 364.571182 14.2459733L371.963563 14.2459733C371.963563 14.2459733 371.974797 13.908939 371.997268 13.234859 372.019735 12.560776 371.903646 11.8192983 371.648994 11.0104028 371.394341 10.2015073 370.918747 9.46377419 370.222196 8.79718339 369.525648 8.13059259 368.450878 7.79730007 366.99786 7.79730007zM369.244784 12.2686802L364.548714 12.2686802C364.548714 12.2686802 364.691019 11.8867074 364.975631 11.1227475 365.26024 10.3587905 365.95678 9.97681776 367.065269 9.97681776 368.158777 9.97681776 368.795399 10.3587905 368.975153 11.1227475 369.154909 11.8867074 369.244784 12.2686802 369.244784 12.2686802zM369.828987 4.87630179L363.942043 4.87630179 363.942043 6.71877656 369.828987 6.71877656 369.828987 4.87630179zM390.042914 1C391.511495 1 392.9133 1.27654657 394.248376 1.82964594 395.583445 2.38275154 396.765923 3.17424517 397.795836 4.20415799 398.825755 5.25314385 399.617248 6.44515879 400.170348 7.78023396 400.723453 9.11530914 401 10.5075785 401 11.9570857 401 13.4638119 400.713917 14.8846909 400.141745 16.219766 399.569566 17.5548375 398.787609 18.7182416 397.795836 19.7100109 396.804069 20.7017801 395.640664 21.4837397 394.305588 22.0559146 392.97052 22.628089 391.549641 22.9141719 390.042914 22.9141719 389.127433 22.9141719 388.22627 22.8045068 387.339399 22.5851732 386.452534 22.3658396 385.608589 22.0368441 384.807542 21.5981773L384.807542 21.5981773 379 23.114432 380.544864 17.4499327C380.068051 16.6107446 379.705679 15.728654 379.457737 14.8036367 379.209795 13.8786256 379.085826 12.9297794 379.085826 11.9570857 379.085826 10.4503594 379.371909 9.02948048 379.944083 7.6944053 380.53533 6.35933012 381.326826 5.19593097 382.318596 4.20415799 383.310365 3.21239124 384.464232 2.4304279 385.780234 1.85825549 387.115309 1.28608309 388.536188 1 390.042914 1zM390.042914 2.85955876C388.803198 2.85955876 387.630262 3.09795925 386.524057 3.57477271 385.417852 4.05157993 384.449939 4.70003825 383.620286 5.5201539 382.790633 6.34026955 382.13741 7.30341428 381.660598 8.40961925 381.183786 9.51582422 380.945384 10.6983026 380.945384 11.9570857 380.945384 12.8153474 381.064585 13.6545236 381.302991 14.4746393 381.541397 15.2947549 381.889465 16.0671817 382.347204 16.7919384L382.347204 16.7919384 382.547464 17.1352388 381.631989 20.511051 385.065019 19.5955764 385.408322 19.7958364C386.114006 20.2154314 386.857817 20.5348904 387.639793 20.7542241 388.421762 20.9735578 389.222799 21.0832228 390.042914 21.0832228 391.301697 21.0832228 392.48417 20.8448204 393.590375 20.3680082 394.696579 19.891196 395.659724 19.2379731 396.479846 18.4083203 397.299962 17.5786676 397.948414 16.6107508 398.425227 15.5045521 398.921114 14.3983471 399.169051 13.2158687 399.169051 11.9570857 399.169051 10.7364487 398.940181 9.57304333 398.482446 8.46683836 398.024706 7.36063339 397.357175 6.37841562 396.479846 5.5201539 395.621584 4.66189217 394.63936 4.00390357 393.533162 3.54616315 392.426957 3.08842273 391.263551 2.85955876 390.042914 2.85955876zM386.695709 6.89336892C386.772001 6.91244196 386.86736 6.93150876 386.981792 6.9505818 387.09623 6.96965483 387.201125 7.11269638 387.296491 7.37971266 387.410923 7.64672894 387.573037 8.03293924 387.782834 8.53836225 387.992631 9.04377902 388.1166 9.33463037 388.154746 9.41092252 388.192892 9.46814163 388.216733 9.53965928 388.22627 9.62548795 388.235806 9.71131038 388.221502 9.8019073 388.183356 9.89726625 388.126136 9.9735584 388.083222 10.0450761 388.054619 10.1118317 388.026009 10.1785873 387.973558 10.2596415 387.897266 10.3550067 387.840053 10.4312926 387.773298 10.512353 387.697006 10.5981754 387.62072 10.6840041 387.553964 10.7555217 387.496751 10.8127409 387.420459 10.889033 387.36324 10.9700872 387.3251 11.0559158 387.286954 11.1417383 387.306027 11.2514082 387.382313 11.3849133 387.458605 11.5184183 387.630256 11.7758981 387.897266 12.1573463 388.164283 12.5387946 388.498048 12.9107001 388.89857 13.2730816 389.413529 13.749895 389.876025 14.0788862 390.286083 14.2600738 390.696141 14.4412677 390.967925 14.5700044 391.10143 14.6462904 391.234936 14.7035095 391.344605 14.7273508 391.430428 14.7178143 391.516257 14.7082777 391.606847 14.6558269 391.702212 14.5604679 391.778498 14.4841758 391.916772 14.3220612 392.117032 14.074118 392.317293 13.8261809 392.465103 13.6354568 392.560468 13.5019456 392.655827 13.3684405 392.751192 13.3016911 392.846551 13.3016911 392.941916 13.3016911 393.046812 13.3207579 393.16125 13.358904 393.294755 13.3970501 393.609448 13.5400916 394.105334 13.7880349 394.601214 14.0359781 394.915907 14.1885562 395.049412 14.2457691 395.182923 14.3220612 395.292587 14.3792803 395.378416 14.4174264 395.464238 14.4555662 395.526225 14.5032488 395.564371 14.5604679 395.602511 14.6176808 395.616816 14.7702589 395.60728 15.0182021 395.597743 15.2661454 395.535762 15.5522284 395.421324 15.8764638 395.306892 16.200693 395.035113 16.4867761 394.605983 16.7347193 394.176852 16.9826607 393.828781 17.1257022 393.561765 17.1638471 393.332901 17.2019919 393.070653 17.2210643 392.775033 17.2210643 392.479408 17.2210643 392.169483 17.1733836 391.845254 17.0780215 391.635457 17.0017312 391.401818 16.9206746 391.144345 16.8348465 390.886865 16.7490241 390.596014 16.6298239 390.271778 16.4772396 388.898563 15.8859941 387.792377 15.0754275 386.953188 14.0455146 386.113993 13.0155956 385.665802 12.4529659 385.608583 12.357607 385.532291 12.2622418 385.327268 11.9332506 384.993498 11.3706085 384.659729 10.8079726 384.492848 10.1928921 384.492848 9.5253545 384.492848 8.85781691 384.621585 8.34286985 384.879064 7.98049462 385.136542 7.61811315 385.322494 7.37017614 385.436932 7.23667111 385.570437 7.10315986 385.703942 7.01256917 385.837453 6.96488657 385.970958 6.91720398 386.08539 6.89336892 386.180755 6.89336892L386.180755 6.89336892zM415.964844 17.7148417C415.964844 18.7174529 416.072264 19.4908825 416.287109 20.0351564 416.501954 20.5794299 416.881508 21.080727 417.425781 21.5390624 417.970053 21.9973982 418.628901 22.3554674 419.402342 22.6132812 420.175787 22.871095 420.963537 23 421.765624 23 422.653651 23 423.470048 22.9140634 424.214842 22.7421875 425.102869 22.5416657 425.947913 22.2408872 426.75 21.8398436L426.75 18.53125C425.861977 19.1328157 424.902351 19.4335936 423.871094 19.4335936 423.240883 19.4335936 422.682294 19.2760431 422.195312 18.9609376 421.794271 18.7317697 421.522135 18.4166689 421.378906 18.0156238 421.29297 17.8151009 421.25 17.0273511 421.25 15.6523417L421.25 10.625 426.75 10.625 426.75 6.5 421.25 6.5 421.25 1 417.683594 1C417.56901 2.14583957 417.325523 3.08398043 416.953125 3.81445532 416.580727 4.54492553 416.07943 5.16796553 415.449219 5.68359404 414.933591 6.14192894 414.117193 6.54296553 413 6.88671787L413 10.625 415.964844 10.625 415.964844 17.7148417z"/>
    </g>
  </g>
</svg>
